<?xml version="1.0" encoding="utf-8"?>
<!-- Generator: Adobe Illustrator 21.0.0, SVG Export Plug-In . SVG Version: 6.00 Build 0)  -->
<svg version="1.1" id="圖層_2" xmlns="http://www.w3.org/2000/svg" xmlns:xlink="http://www.w3.org/1999/xlink" x="0px" y="0px"
	 viewBox="0 0 246.3 64.1" style="enable-background:new 0 0 246.3 64.1;" xml:space="preserve">
<style type="text/css">
	.st0{fill:#89A5A0;}
	.st1{fill:#43514F;}
	.st2{fill:#5D7270;}
	.st3{fill:#FFFFFF;}
	.st4{fill:#F5F5F5;}
</style>
<g>
	<g>
		<path class="st0" d="M217.6,58.3H28c-15.4,0-28-12.5-28-28V28C0,12.5,12.5,0,28,0h189.7c15.4,0,28,12.5,28,28v2.3
			C245.6,45.8,233.1,58.3,217.6,58.3z"/>
	</g>
	<g>
		<path class="st1" d="M216.5,64.1H29.1C13,64.1,0,51.1,0,35l0,0C0,18.9,13,5.9,29.1,5.9h187.3c16.1,0,29.1,13,29.1,29.1l0,0
			C245.6,51.1,232.6,64.1,216.5,64.1z"/>
	</g>
	<g>
		<path class="st2" d="M216.5,60.7H29.1C13,60.7,0,47.6,0,31.5l0,0C0,15.4,13,2.4,29.1,2.4h187.3c16.1,0,29.1,13,29.1,29.1l0,0
			C245.6,47.6,232.6,60.7,216.5,60.7z"/>
	</g>
</g>
<g>
	<path class="st3" d="M32.4,54.8c-13,0-23.6-10.6-23.6-23.6S19.4,7.6,32.4,7.6S56,18.2,56,31.2S45.4,54.8,32.4,54.8z M32.4,8.6
		C19.9,8.6,9.8,18.7,9.8,31.2s10.1,22.6,22.6,22.6C44.8,53.8,55,43.6,55,31.2C55,18.7,44.8,8.6,32.4,8.6z"/>
</g>
<g>
	<polygon class="st4" points="68.5,61.2 69.5,60.7 69.5,2.1 68.5,2.1 	"/>
</g>
<g>
	<g>
		<path class="st3" d="M48,32.7l-2.4-2.4l-0.1-0.1h-0.1l0,0l0,0c-0.1,0-0.1,0-0.2,0c0,0-0.1,0-0.1,0.1l0,0l-2.4,2.4
			c-0.2,0.2-0.2,0.4,0,0.6c0.1,0.1,0.2,0.1,0.3,0.1s0.2,0,0.3-0.1l1.7-1.7v10.2c0,0.2,0.2,0.4,0.4,0.4s0.4-0.2,0.4-0.4V31.6l1.7,1.7
			c0.1,0.1,0.2,0.1,0.3,0.1s0.2,0,0.3-0.1C48.1,33.1,48.1,32.9,48,32.7z"/>
	</g>
	<g>
		<rect x="18.8" y="17.5" class="st3" width="23.4" height="2.5"/>
	</g>
	<g>
		<path class="st3" d="M35.6,22.2h-1v0.9h1V22.2z M37.7,23.2v-1h-1v0.9h0.9C37.6,23.2,37.6,23.2,37.7,23.2z M33.6,23.2v-0.9h-1v1
			h0.1h0.9V23.2z M35.5,26h-0.9v1.9h1v-0.1v-1.6C35.6,26.1,35.6,26,35.5,26z M38.7,21.3v6.5c0,0.6-0.5,1.1-1.1,1.1h-4.8
			c-0.6,0-1.1-0.5-1.1-1.1v-6.5h-5.1v3.3h-3.1v-3.3h-3.1v22.4c0,0.8,0.7,1.5,1.6,1.5h17.1c0.9,0,1.6-0.7,1.6-1.5V21.3H38.7z
			 M26.5,41.5h-3.1v-3.8h3.1V41.5z M26.5,35.9h-3.1v-3.8h3.1V35.9z M26.5,30.2h-3.1v-3.8h3.1V30.2z M34.5,41.4
			c-0.1,0.1-0.2,0.1-0.4,0.1c-0.1,0-0.3-0.1-0.4-0.1c-0.1-0.1-0.1-0.2-0.1-0.3s0.1-0.2,0.1-0.3c0.2-0.2,0.5-0.2,0.7,0
			c0.1,0.1,0.1,0.2,0.1,0.3C34.6,41.2,34.6,41.3,34.5,41.4z M34.6,39.1c0,0.3-0.2,0.5-0.5,0.5s-0.5-0.2-0.5-0.5v-0.9
			c0-0.3,0.2-0.5,0.5-0.5s0.5,0.2,0.5,0.5V39.1z M34.6,36.3c0,0.3-0.2,0.5-0.5,0.5s-0.5-0.2-0.5-0.5v-0.5c0-0.3,0.2-0.5,0.5-0.5
			s0.5,0.2,0.5,0.5V36.3z M34.6,34c0,0.3-0.2,0.5-0.5,0.5s-0.5-0.2-0.5-0.5v-1c0-0.3,0.2-0.5,0.5-0.5s0.5,0.2,0.5,0.5V34z
			 M34.6,31.2c0,0.3-0.2,0.5-0.5,0.5s-0.5-0.2-0.5-0.5v-0.5c0-0.3,0.2-0.5,0.5-0.5s0.5,0.2,0.5,0.5V31.2z M37.2,41
			c0,0.3-0.2,0.5-0.5,0.5s-0.5-0.2-0.5-0.5v-4.2c0-0.3,0.2-0.5,0.5-0.5s0.5,0.2,0.5,0.5V41z M37.2,34.9c0,0.3-0.2,0.5-0.5,0.5
			s-0.5-0.2-0.5-0.5v-4.2c0-0.3,0.2-0.5,0.5-0.5s0.5,0.2,0.5,0.5V34.9z M32.7,27.9h0.9V26h-0.9h-0.1v1.8
			C32.6,27.8,32.6,27.9,32.7,27.9z M32.7,25.1h2.8c0.6,0,1.1,0.5,1.1,1.1v1.6c0,0.1,0.1,0.1,0.1,0.1h0.8c0.1,0,0.1-0.1,0.1-0.1v-3.5
			c0-0.1-0.1-0.1-0.1-0.1h-4.8c-0.1,0-0.1,0.1-0.1,0.1V25C32.6,25,32.6,25.1,32.7,25.1z"/>
	</g>
</g>
</svg>
