<?xml version="1.0" encoding="utf-8"?>
<!-- Generator: Adobe Illustrator 21.0.0, SVG Export Plug-In . SVG Version: 6.00 Build 0)  -->
<svg version="1.1" id="圖層_1" xmlns="http://www.w3.org/2000/svg" xmlns:xlink="http://www.w3.org/1999/xlink" x="0px" y="0px"
	 viewBox="0 0 245.7 64.1" style="enable-background:new 0 0 245.7 64.1;" xml:space="preserve">
<style type="text/css">
	.st0{fill:#BF0202;}
	.st1{fill:#490101;}
	.st2{fill:#8C0000;}
	.st3{fill:#FFFFFF;}
	.st4{fill:#F5F5F5;}
	.st5{display:none;}
	.st6{display:inline;}
	.st7{opacity:0.4;}
	.st8{fill:#0597E8;}
	.st9{fill:#025F93;}
	.st10{fill:#0071BC;}
	.st11{fill:#C5C9C9;}
</style>
<g id="圖層_1_1_">
	<g>
		<g>
			<path class="st0" d="M217.6,58.3H28c-15.4,0-28-12.5-28-28V28C0,12.5,12.5,0,28,0h189.7c15.4,0,28,12.5,28,28v2.3
				C245.6,45.8,233.1,58.3,217.6,58.3z"/>
		</g>
		<g>
			<g>
				<path class="st1" d="M216.5,64.1H29.1C13,64.1,0,51.1,0,35l0,0C0,18.9,13,5.9,29.1,5.9h187.3c16.1,0,29.1,13,29.1,29.1l0,0
					C245.6,51.1,232.6,64.1,216.5,64.1z"/>
			</g>
			<g>
				<path class="st2" d="M216.5,60.7H29.1C13,60.7,0,47.6,0,31.5l0,0C0,15.4,13,2.4,29.1,2.4h187.3c16.1,0,29.1,13,29.1,29.1l0,0
					C245.6,47.6,232.6,60.7,216.5,60.7z"/>
			</g>
		</g>
		<g>
			<path class="st3" d="M32.4,54.8c-13,0-23.6-10.6-23.6-23.6S19.4,7.6,32.4,7.6S56,18.1,56,31.2S45.4,54.8,32.4,54.8z M32.4,8.6
				C19.9,8.6,9.8,18.7,9.8,31.2s10.1,22.6,22.6,22.6S55,43.6,55,31.2S44.8,8.6,32.4,8.6z"/>
		</g>
		<g>
			<polygon class="st4" points="68.5,61.2 69.5,60.7 69.5,2.1 68.5,2.1 			"/>
		</g>
		<g>
			<path class="st3" d="M18.9,27v9.3c0,2.9,2.4,5.3,5.3,5.3h16.4c2.9,0,5.3-2.4,5.3-5.3V27H18.9z M31.8,31.6h-2.3v7.1h-1.7v-7.1
				h-2.3V30h6.4v1.6H31.8z M39.3,38L39.3,38c-0.9,0.5-1.9,0.7-3,0.7c-1.3,0-2.3-0.4-3.1-1.2S32,35.7,32,34.4s0.4-2.4,1.3-3.3
				c0.8-0.8,2-1.3,3.3-1.3c0.9,0,1.7,0.1,2.3,0.4l0.1,0.1v1.8L38.8,32c-0.6-0.4-1.4-0.6-2.2-0.6s-1.4,0.3-1.9,0.8
				c-0.5,0.5-0.8,1.2-0.8,2.1c0,0.9,0.2,1.6,0.7,2.1s1.1,0.7,1.9,0.7c0.5,0,0.9-0.1,1.2-0.2v-1.7H36v-1.5h3.4V38H39.3z M40.6,20.8
				H24.2c-2.6,0-4.8,2-5.2,4.5h26.8C45.4,22.8,43.2,20.8,40.6,20.8z M35.7,24.3c-0.5,0-0.9-0.4-0.9-0.9s0.4-0.9,0.9-0.9
				s0.9,0.4,0.9,0.9C36.6,23.8,36.2,24.3,35.7,24.3z M38.8,24.3c-0.5,0-0.9-0.4-0.9-0.9s0.4-0.9,0.9-0.9s0.9,0.4,0.9,0.9
				C39.7,23.8,39.3,24.3,38.8,24.3z M41.9,24.3c-0.5,0-0.9-0.4-0.9-0.9s0.4-0.9,0.9-0.9s0.9,0.4,0.9,0.9
				C42.8,23.8,42.4,24.3,41.9,24.3z"/>
		</g>
	</g>
</g>
<g id="圖層_2" class="st5">
	<g class="st6">
		<g class="st7">
			
				<image style="overflow:visible;enable-background:new    ;" width="1329" height="563" xlink:href="F21252473EB9FF71.png"  transform="matrix(0.2391 0 0 0.2379 -39.2896 39.804)">
			</image>
		</g>
		<g>
			<g>
				<path class="st8" d="M213.6,130.3H24c-15.4,0-28-12.5-28-28V100c0-15.4,12.5-28,28-28h189.7c15.4,0,28,12.5,28,28v2.3
					C241.6,117.7,229.1,130.3,213.6,130.3z"/>
			</g>
			<g>
				<path class="st9" d="M212.5,136.1H25.1C9,136.1-4,123-4,107l0,0c0-16.1,13-29.1,29.1-29.1h187.3c16.1,0,29.1,13,29.1,29.1l0,0
					C241.6,123,228.6,136.1,212.5,136.1z"/>
			</g>
			<g>
				<path class="st10" d="M212.5,132.6H25.1C9,132.6-4,119.6-4,103.5l0,0c0-16.1,13-29.1,29.1-29.1h187.3c16.1,0,29.1,13,29.1,29.1
					l0,0C241.6,119.6,228.6,132.6,212.5,132.6z"/>
			</g>
		</g>
		<g>
			<g>
				<path class="st3" d="M90.2,88.5c1.3,1.7,2.7,3.1,4.2,4.1c1.4,0.9,3.1,1.8,5,2.6l-1.2,1.6c-1.7-0.6-3.4-1.5-5-2.7
					c-1.4-0.9-2.6-2-3.7-3.3c-1.1,1.3-2.3,2.5-3.7,3.6c-1.5,1.1-3.2,2-4.9,2.7l-1.2-1.5c2-0.8,3.7-1.7,5.1-2.7
					c1.5-1.1,2.8-2.5,4.1-4.2h1.3V88.5z M90.5,95.2v13.2h-1.8V95.2H90.5z"/>
			</g>
			<g>
				<path class="st3" d="M114.7,102.7c-1.6,2.4-4,4.2-7.1,5.5l-1.5-1.6c3.2-1.1,5.4-2.7,6.9-4.7c1.4-2.1,2.1-4.6,2.1-7.4v-6.3h1.8
					v6.3c0,0.3,0,0.6,0,0.9c0.7,3.2,1.7,5.7,3,7.3c1.4,1.7,3.5,3,6.1,3.8l-1.2,1.7c-2.7-1-4.8-2.5-6.4-4.4c-0.9-1.1-1.7-2.6-2.3-4.3
					C115.8,100.7,115.3,101.7,114.7,102.7z"/>
			</g>
			<g>
				<path class="st3" d="M135.4,104.2v-8.3H133v-1.8h4.2v10.7l1.9-0.9l0.3,1.8l-3.4,1.6l-1.1-1.4
					C135.2,105.5,135.4,104.9,135.4,104.2z M135.1,88.2c1,0.7,2,1.7,3.2,3l-1.4,1.3c-1.2-1.3-2.2-2.3-3.1-3L135.1,88.2z M138.7,98.5
					v-1.8h3v-5.9h-2.4V89h8.1h0.9h0.9v14.4c0,0.7,0.1,1.3,0.3,1.8c0.1,0.2,0.2,0.3,0.4,0.3s0.3-0.1,0.4-0.2c0.1-0.2,0.3-1.1,0.6-2.6
					l1.8,1.1c-0.2,1.7-0.7,2.9-1.3,3.6c-0.4,0.5-0.9,0.8-1.4,0.8s-0.9-0.2-1.3-0.6c-0.8-1-1.2-3.2-1.2-6.6V90.8h-3.9v5.9h2.6v1.8
					h-2.6v9.8h-1.8v-9.8C141.8,98.5,138.7,98.5,138.7,98.5z"/>
			</g>
			<g>
				<path class="st3" d="M162.9,102.3c0,1-0.2,1.9-0.4,2.7c-0.3,0.9-0.7,1.8-1.2,2.6l-1.7-1c0.5-0.7,0.9-1.4,1.1-2.1
					c0.2-0.8,0.3-1.6,0.4-2.4L162.9,102.3z M173.4,100.1h-9.1h-0.9h-0.9V89.8h0.9h0.9h2.7c0.3-0.7,0.5-1.3,0.6-1.8l1.8,0.6
					c-0.1,0.4-0.2,0.8-0.3,1.2h4.4h0.9h0.9v10.3h-0.9H173.4z M173.4,92.8v-1.4h-9.1v1.4H173.4z M173.4,95.7v-1.2h-9.1v1.2H173.4z
					 M164.3,97.3v1.1h9.1v-1.1H164.3z M172.6,105.7c0.3-0.1,0.4-0.5,0.5-1.1c0-0.3,0.1-0.6,0.1-0.8l1.8,0.8
					c-0.1,0.4-0.2,0.8-0.2,1.3c-0.1,0.6-0.4,1.1-0.7,1.4c-0.4,0.2-0.8,0.4-1.3,0.4h-6.5c-1.2,0-1.8-0.6-1.8-1.8v-4.3h1.8v3.4
					c0,0.6,0.3,0.9,0.8,0.9h4.8C172.1,105.9,172.3,105.8,172.6,105.7z M169.7,100.8c0.6,0.8,1.2,1.8,1.7,3.1l-1.6,0.8
					c-0.6-1.3-1.1-2.3-1.7-3.1L169.7,100.8z M176.4,101.5c0.9,1.4,1.7,3.2,2.5,5.4l-1.8,0.6c-0.8-2.2-1.6-3.9-2.4-5L176.4,101.5z"/>
			</g>
		</g>
		<g>
			<g>
				<path class="st11" d="M82.8,119.1l-0.6-0.8c1-0.4,1.9-0.9,2.6-1.4c0.7-0.6,1.4-1.3,2.1-2.2h0.6c0.7,0.9,1.4,1.6,2.1,2.1
					c0.8,0.5,1.6,1,2.6,1.4l-0.6,0.8c-0.5-0.2-1-0.5-1.5-0.7v0.7h-5.7v-0.7C83.9,118.6,83.4,118.9,82.8,119.1z M85.9,121h-3v-0.9
					h8.6v0.9H87c-0.6,0.8-1.3,1.6-1.9,2.3l4.2-0.4c-0.2-0.3-0.4-0.5-0.6-0.7l0.7-0.6c0.6,0.6,1.3,1.4,1.9,2.4l-0.8,0.6
					c-0.2-0.3-0.4-0.5-0.5-0.7l-6,0.5l-0.3-1C84.5,122.6,85.2,121.8,85.9,121z M89.9,118.2c-0.3-0.2-0.6-0.4-0.8-0.6
					c-0.7-0.5-1.3-1.1-1.9-1.7c-0.6,0.7-1.2,1.3-1.9,1.8c-0.2,0.2-0.5,0.3-0.7,0.5C84.6,118.2,89.9,118.2,89.9,118.2z"/>
			</g>
			<g>
				<path class="st11" d="M100,120.1h0.8v1.3c0,1-0.4,1.7-1.3,2.2c-0.8,0.4-1.9,0.7-3.4,0.9l-0.3-1c1.5-0.1,2.6-0.3,3.2-0.6
					c0.6-0.3,0.9-0.8,0.9-1.5v-1.3H100z M97.9,119.3v2.9H97v-2.9v-0.4v-0.4h5.9h0.4h0.5v3.8h-0.9v-2.9L97.9,119.3L97.9,119.3z
					 M102.3,117.7h-3.7h-0.5h-0.4V115h0.4h0.5h3.7h0.4h0.5v2.7h-0.5H102.3z M102.3,115.8h-3.7v1h3.7V115.8z M101.5,122.6
					c1,0.2,2.2,0.6,3.6,1.3l-0.4,0.9c-1.4-0.6-2.5-1-3.4-1.2L101.5,122.6z"/>
			</g>
			<g>
				<path class="st11" d="M113.9,114.7c0.6,0.8,1.3,1.5,2.1,2c0.7,0.5,1.6,0.9,2.5,1.3l-0.6,0.8c-0.9-0.3-1.7-0.8-2.5-1.4
					c-0.7-0.5-1.3-1-1.8-1.7c-0.5,0.7-1.2,1.3-1.8,1.8c-0.8,0.6-1.6,1-2.5,1.3l-0.6-0.8c1-0.4,1.9-0.9,2.5-1.3
					c0.7-0.5,1.4-1.2,2.1-2.1L113.9,114.7L113.9,114.7z M114.1,118.1v6.6h-0.9v-6.6H114.1z"/>
			</g>
			<g>
				<path class="st11" d="M126.1,121.8c-0.8,1.2-2,2.1-3.5,2.7l-0.7-0.8c1.6-0.6,2.7-1.4,3.4-2.3c0.7-1.1,1.1-2.3,1.1-3.7v-3.1h0.9
					v3.1c0,0.1,0,0.3,0,0.4c0.3,1.6,0.8,2.8,1.5,3.7c0.7,0.8,1.7,1.5,3.1,1.9l-0.6,0.9c-1.4-0.5-2.4-1.3-3.2-2.2
					c-0.5-0.6-0.8-1.3-1.1-2.2C126.7,120.8,126.5,121.4,126.1,121.8z"/>
			</g>
			<g>
				<path class="st11" d="M136.5,122.6v-4.2h-1.2v-0.9h2.1v5.4l0.9-0.5l0.1,0.9l-1.7,0.8l-0.5-0.7
					C136.4,123.2,136.5,122.9,136.5,122.6z M136.3,114.6c0.5,0.4,1,0.9,1.6,1.5l-0.7,0.7c-0.6-0.7-1.1-1.2-1.5-1.5L136.3,114.6z
					 M138.2,119.7v-0.9h1.5v-2.9h-1.2V115h4h0.4h0.5v7.2c0,0.4,0,0.7,0.1,0.9c0,0.1,0.1,0.2,0.2,0.2c0.1,0,0.1,0,0.2-0.1
					c0.1-0.1,0.2-0.6,0.3-1.3l0.9,0.5c-0.1,0.8-0.3,1.4-0.6,1.8c-0.2,0.3-0.4,0.4-0.7,0.4s-0.5-0.1-0.6-0.3
					c-0.4-0.5-0.6-1.6-0.6-3.3v-5.1h-1.9v2.9h1.3v0.9h-1.3v4.9h-0.9v-4.9H138.2z"/>
			</g>
			<g>
				<path class="st11" d="M150.2,121.6c0,0.5-0.1,1-0.2,1.4c-0.1,0.5-0.3,0.9-0.6,1.3l-0.8-0.5c0.3-0.3,0.5-0.7,0.6-1.1
					s0.2-0.8,0.2-1.2L150.2,121.6z M155.5,120.5H151h-0.5h-0.4v-5.1h0.4h0.5h1.4c0.1-0.4,0.2-0.7,0.3-0.9l0.9,0.3
					c0,0.2-0.1,0.4-0.2,0.6h2.2h0.4h0.5v5.1H156H155.5z M155.5,116.9v-0.7H151v0.7H155.5z M155.5,118.3v-0.6H151v0.6H155.5z
					 M151,119.1v0.5h4.6v-0.5H151z M155.1,123.4c0.1-0.1,0.2-0.2,0.2-0.5c0-0.2,0-0.3,0-0.4l0.9,0.4c0,0.2-0.1,0.4-0.1,0.6
					c-0.1,0.3-0.2,0.5-0.4,0.7c-0.2,0.1-0.4,0.2-0.7,0.2h-3.2c-0.6,0-0.9-0.3-0.9-0.9v-2.1h0.9v1.7c0,0.3,0.1,0.4,0.4,0.4h2.4
					C154.8,123.4,155,123.4,155.1,123.4z M153.7,120.9c0.3,0.4,0.6,0.9,0.9,1.6l-0.8,0.4c-0.3-0.7-0.6-1.2-0.8-1.5L153.7,120.9z
					 M157,121.2c0.4,0.7,0.9,1.6,1.3,2.7l-0.9,0.3c-0.4-1.1-0.8-1.9-1.2-2.5L157,121.2z"/>
			</g>
			<g>
				<path class="st11" d="M162.8,118.7h-1.2v-0.9h2.1v4.6c0,0.2,0.2,0.4,0.4,0.6s0.5,0.4,1,0.5c0.4,0.1,1,0.2,1.8,0.2
					c1.7,0,3.2-0.1,4.5-0.1l-0.2,1c-1.7,0-3.3,0-4.8,0c-0.9,0-1.5-0.2-2-0.4c-0.4-0.2-0.8-0.4-1-0.7c-0.1,0.2-0.3,0.4-0.7,0.7
					c-0.3,0.2-0.7,0.4-1,0.5l-0.4-0.8c0.6-0.2,0.9-0.4,1.1-0.6c0.2-0.2,0.3-0.4,0.3-0.7L162.8,118.7L162.8,118.7z M162.7,114.6
					c0.4,0.4,0.9,1,1.4,1.7l-0.8,0.6c-0.5-0.7-0.9-1.3-1.3-1.6L162.7,114.6z M165.6,121.3v1.8h-0.8v-5v-0.4v-0.4h1.8
					c-0.3-0.2-0.5-0.4-0.7-0.5l0.5-0.7c0.3,0.2,0.6,0.4,0.9,0.6c0.8-0.2,1.4-0.4,1.7-0.6c0.1-0.1,0.2-0.1,0.3-0.2h-4.5V115h5.4
					l0.5,0.5c-0.4,0.6-0.8,1-1.2,1.2s-0.8,0.4-1.2,0.5h1.5h0.4h0.4v5c0,0.6-0.3,0.9-0.9,0.9h-0.6l-0.2-0.8h0.5
					c0.2,0,0.4-0.1,0.4-0.4v-0.6h-1.7v1.8h-0.8v-1.8C167.3,121.3,165.6,121.3,165.6,121.3z M167.2,118.1h-1.6v0.7h1.6V118.1z
					 M167.2,119.7h-1.6v0.8h1.6V119.7z M168.1,118.8h1.7v-0.7h-1.7V118.8z M168.1,120.4h1.7v-0.8h-1.7V120.4z"/>
			</g>
			<g>
				<path class="st11" d="M177.6,122.6c-0.5,0.9-1.2,1.5-2.1,2l-0.8-0.8c0.9-0.4,1.6-1,2.1-1.7c0.4-0.6,0.6-1.4,0.6-2.1H175v-0.9
					h2.4v-2.2h-0.8c-0.2,0.5-0.5,1-0.8,1.5l-0.8-0.5c0.4-0.5,0.7-1,0.8-1.5c0.2-0.6,0.3-1.1,0.3-1.8l0.9,0.2c0,0.4-0.1,0.9-0.2,1.3
					h3v0.9h-1.6v2.2h1.8v0.9h-1.8c0,0.3-0.1,0.6-0.1,0.8c0.7,0.7,1.3,1.4,2,2.2l-0.7,0.6c-0.4-0.6-0.9-1.2-1.5-1.8
					C177.8,122.1,177.7,122.3,177.6,122.6z M181.4,124.2h-0.9V116c0-0.1,0-0.2,0-0.3c0.1,0,0.2,0,0.3,0h2.8c0.1,0,0.2,0,0.3,0
					c0,0.1,0,0.2,0,0.3v8.2H183v-0.9h-1.6L181.4,124.2L181.4,124.2z M183.1,122.4v-5.7v-0.1H183h-1.4h-0.1c0,0.1,0,0.1,0,0.1v5.7
					H183.1z"/>
			</g>
		</g>
		<g>
			<path class="st3" d="M28.4,126.7c-13,0-23.6-10.6-23.6-23.6s10.6-23.6,23.6-23.6S52,90.1,52,103.1
				C52,116.2,41.4,126.7,28.4,126.7z M28.4,80.5c-12.5,0-22.6,10.1-22.6,22.6s10.1,22.6,22.6,22.6S51,115.6,51,103.1
				S40.8,80.5,28.4,80.5z"/>
		</g>
		<g>
			<polygon class="st4" points="64.5,133.2 65.5,132.6 65.5,74.1 64.5,74.1 			"/>
		</g>
		<g>
			<path class="st3" d="M28.2,92.2c-7.5,0-13.6,4.6-13.6,10.3c0,3.1,1.7,5.8,4.5,7.7c-0.8,1.7-2.1,3.7-4.5,4.4c0,0,4.7,0,7.4-2.9
				c1.8,0.7,3.9,1.1,6.1,1.1c7.5,0,13.6-4.6,13.6-10.3C41.8,96.8,35.7,92.2,28.2,92.2z M27.5,99.5h-2.7v8h-1.9v-8h-2.7v-1.7h7.3
				V99.5z M36.1,106.8L36.1,106.8c-1.1,0.6-2.2,0.9-3.4,0.9c-1.4,0-2.6-0.4-3.5-1.3s-1.3-2.1-1.3-3.6s0.5-2.8,1.5-3.7
				s2.2-1.5,3.7-1.5c1,0,1.9,0.2,2.7,0.5l0.2,0.1v2.1l-0.4-0.2c-0.7-0.4-1.5-0.6-2.5-0.6c-0.9,0-1.6,0.3-2.2,0.9s-0.9,1.4-0.9,2.4
				s0.3,1.8,0.8,2.4s1.2,0.8,2.1,0.8c0.5,0,1-0.1,1.4-0.3v-1.9h-2V102h3.9v4.8H36.1z"/>
		</g>
	</g>
</g>
</svg>
