<?xml version="1.0" encoding="utf-8"?>
<!-- Generator: Adobe Illustrator 21.0.0, SVG Export Plug-In . SVG Version: 6.00 Build 0)  -->
<svg version="1.1" id="圖層_1" xmlns="http://www.w3.org/2000/svg" xmlns:xlink="http://www.w3.org/1999/xlink" x="0px" y="0px"
	 viewBox="0 0 245.7 64.1" style="enable-background:new 0 0 245.7 64.1;" xml:space="preserve">
<style type="text/css">
	.st0{display:none;}
	.st1{display:inline;}
	.st2{opacity:0.4;}
	.st3{fill:#BF0202;}
	.st4{fill:#490101;}
	.st5{fill:#8C0000;}
	.st6{fill:#FF7373;}
	.st7{fill:#C5C9C9;}
	.st8{fill:#FFFFFF;}
	.st9{fill:#F5F5F5;}
	.st10{fill:#0597E8;}
	.st11{fill:#025F93;}
	.st12{fill:#0071BC;}
	.st13{fill:none;stroke:#FFFFFF;stroke-miterlimit:10;}
</style>
<g id="圖層_1_1_" class="st0">
	<g class="st1">
		<g class="st2">
			
				<image style="overflow:visible;enable-background:new    ;" width="1329" height="563" xlink:href="44843A1F32E46C8E.png"  transform="matrix(0.2391 0 0 0.2379 -35.2896 -32.1729)">
			</image>
		</g>
		<g>
			<path class="st3" d="M217.6,58.3H28c-15.4,0-28-12.5-28-28V28C0,12.5,12.5,0,28,0h189.7c15.4,0,28,12.5,28,28v2.3
				C245.6,45.8,233.1,58.3,217.6,58.3z"/>
		</g>
		<g>
			<g>
				<path class="st4" d="M216.5,64.1H29.1C13,64.1,0,51.1,0,35l0,0C0,18.9,13,5.9,29.1,5.9h187.3c16.1,0,29.1,13,29.1,29.1l0,0
					C245.6,51.1,232.6,64.1,216.5,64.1z"/>
			</g>
			<g>
				<path class="st5" d="M216.5,60.7H29.1C13,60.7,0,47.6,0,31.5l0,0C0,15.4,13,2.4,29.1,2.4h187.3c16.1,0,29.1,13,29.1,29.1l0,0
					C245.6,47.6,232.6,60.7,216.5,60.7z"/>
			</g>
		</g>
		<g>
			<g>
				<path class="st6" d="M86,20.1v2.1h-1.8v-2.1v-0.9v-0.9h8.3c-0.2-0.6-0.5-1.1-0.7-1.5l1.7-0.7c0.3,0.6,0.6,1.4,0.9,2.3h6.7h0.9
					h0.9v3.9h-1.8v-2.1L86,20.1L86,20.1z M89.4,36.3h-1.8V23.2v-0.9v-0.8H98h0.9h0.9v4.1v0.8v0.9H89.4v2h11.5v7h-1.8v-1.2h-9.7V36.3
					z M98,25.6v-2.4h-8.6v2.4H98z M99.1,33.4V31h-9.7v2.4H99.1z"/>
			</g>
			<g>
				<path class="st6" d="M126.7,33.8v-15h-13.4v17.6h-1.8V18.8v-0.9V17h15.2h0.9h0.9v17.5c0,1.2-0.6,1.8-1.8,1.8H125l-0.5-1.8h1.5
					C126.5,34.5,126.7,34.3,126.7,33.8z M115.8,33.1l-1.9-0.7c1.2-1.6,2.2-3.2,3-4.9c-0.9-1.6-1.8-2.9-2.6-3.9l1.5-1
					c0.7,0.8,1.3,1.7,2,2.8c0.5-1.4,0.8-3,1-4.6l1.7,0.3c-0.3,2.1-0.8,4.2-1.5,6.2c0.6,1,1.1,2,1.7,3.1l-1.5,0.9
					c-0.4-0.7-0.7-1.3-1-1.9C117.3,30.7,116.6,31.9,115.8,33.1z M121.1,33.7l-1.9-0.7c1.3-1.7,2.3-3.4,3.1-5.2
					c-0.8-1.3-1.5-2.4-2.2-3.3l1.5-1c0.5,0.6,1,1.3,1.5,2.1c0.5-1.5,0.8-3.1,1-4.8l1.7,0.3c-0.3,2.2-0.8,4.4-1.5,6.5
					c0.7,1.2,1.3,2.5,2,3.9l-1.6,0.9c-0.4-0.9-0.9-1.8-1.3-2.6C122.7,31.2,122,32.5,121.1,33.7z"/>
			</g>
			<g>
				<path class="st6" d="M144.9,17.3c-0.6,1.7-1.4,3.3-2.3,4.7c-1,1.5-2.2,2.8-3.5,4l-1.7-1.1c1.4-1.1,2.6-2.4,3.7-3.8
					c0.9-1.3,1.7-2.8,2.3-4.6L144.9,17.3z M145.9,23.4l1.7,0.8c-1.9,3.3-3.9,6.3-5.9,9.1l9.2-0.8c-0.6-1.1-1.2-2.1-1.7-2.9l1.6-0.9
					c1.2,1.7,2.4,4,3.6,6.7l-1.7,0.8c-0.3-0.7-0.6-1.3-0.8-1.8l-12.1,1.1l-0.7-2C141.6,30.4,143.9,27,145.9,23.4z M149.9,16.4
					c0.8,1.9,1.5,3.5,2.3,4.6c0.9,1.2,2.2,2.7,3.8,4.2l-1.8,1.1c-1.4-1.4-2.6-2.8-3.4-4.2c-0.9-1.4-1.7-3.1-2.4-4.9L149.9,16.4z"/>
			</g>
			<g>
				<path class="st6" d="M171.9,21.1h-4.4c-0.4,0.8-0.8,1.6-1.3,2.4l-1.9-0.8c0.8-1,1.3-1.9,1.7-2.8c0.4-0.8,0.6-1.8,0.9-2.9
					l1.8,0.3c-0.2,0.7-0.3,1.4-0.5,2h3.8v-3.2h1.8v3.2h6.6v1.8h-6.6v3.2h8.5v1.8h-18.8v-1.8h8.6v-3.2H171.9z M167.9,36.5h-1.8v-8.1
					c0-0.2,0-0.4,0-0.6c0.2,0,0.4,0,0.6,0h12.5c0.2,0,0.5,0,0.6,0c0,0.2,0,0.4,0,0.6v8.1H178v-1.7h-10.2L167.9,36.5L167.9,36.5z
					 M178,32.9v-3.2c0-0.1,0-0.2,0-0.3c-0.1,0-0.2,0-0.3,0h-9.6c-0.1,0-0.2,0-0.3,0c0,0.1,0,0.2,0,0.3v3.2H178z"/>
			</g>
		</g>
		<g>
			<g>
				<path class="st7" d="M87.4,44.5v1.1h-0.9v-1.1V44v-0.4h4.1c-0.1-0.3-0.2-0.6-0.3-0.8l0.9-0.4c0.2,0.3,0.3,0.7,0.5,1.1H95h0.4
					h0.5v1.9H95v-1.1h-7.6V44.5z M89.1,52.7h-0.9v-6.6v-0.4v-0.4h5.2h0.4h0.5v2.1v0.4v0.4h-5.2v1h5.8v3.5H94v-0.6h-4.9V52.7z
					 M93.4,47.3v-1.2h-4.3v1.2H93.4z M94,51.2V50h-4.9v1.2H94z"/>
			</g>
			<g>
				<path class="st7" d="M106.6,51.5c0.3-0.3,0.5-1,0.5-2.1v-1.8h-3.9c-0.1,0.9-0.3,1.6-0.6,2.3c-0.5,1.2-1.2,2.1-2.2,2.8L99.5,52
					c1-0.6,1.8-1.4,2.2-2.4c0.5-1.1,0.7-2.4,0.7-3.8v-0.6h-2.9v-0.9h4.7c-0.3-0.5-0.5-0.9-0.7-1.1l0.8-0.5c0.3,0.3,0.6,0.8,0.8,1.3
					l-0.6,0.3h4.7v0.9h-6v0.6c0,0.3,0,0.6,0,0.9h3.8h0.4h0.5v2.9c0,1.3-0.2,2.2-0.7,2.6c-0.3,0.3-0.8,0.5-1.3,0.5
					c-0.4,0-0.8,0-1.2,0l-0.2-1c0.5,0,0.9,0.1,1.4,0.1C106.2,51.7,106.4,51.6,106.6,51.5z"/>
			</g>
			<g>
				<path class="st7" d="M121,51.4v-7.5h-6.7v8.8h-0.9v-8.8v-0.5V43h7.6h0.4h0.5v8.8c0,0.6-0.3,0.9-0.9,0.9h-0.8l-0.2-0.9h0.7
					C120.8,51.8,121,51.6,121,51.4z M115.5,51l-1-0.3c0.6-0.8,1.1-1.6,1.5-2.4c-0.5-0.8-0.9-1.4-1.3-2l0.7-0.5
					c0.3,0.4,0.7,0.9,1,1.4c0.2-0.7,0.4-1.5,0.5-2.3l0.8,0.2c-0.2,1.1-0.4,2.1-0.7,3.1c0.3,0.5,0.6,1,0.8,1.6l-0.8,0.5
					c-0.2-0.3-0.4-0.7-0.5-1C116.3,49.8,115.9,50.4,115.5,51z M118.2,51.4l-1-0.3c0.6-0.8,1.2-1.7,1.6-2.6c-0.4-0.7-0.7-1.2-1.1-1.7
					l0.8-0.5c0.2,0.3,0.5,0.7,0.7,1.1c0.2-0.7,0.4-1.5,0.5-2.4l0.8,0.2c-0.2,1.1-0.4,2.2-0.8,3.2c0.3,0.6,0.7,1.2,1,1.9l-0.8,0.4
					c-0.2-0.5-0.4-0.9-0.7-1.3C119,50.1,118.6,50.7,118.2,51.4z"/>
			</g>
			<g>
				<path class="st7" d="M128.4,51.9c-0.8,0.2-1.6,0.3-2.3,0.3l-0.3-1c0.7,0,1.5-0.1,2.3-0.2c0.4-2,0.7-3.6,0.7-4.9l0.9,0.1
					c0,1.3-0.2,2.8-0.6,4.6c0.3-0.1,0.6-0.2,0.9-0.3l0.3,0.9C129.8,51.6,129.1,51.7,128.4,51.9L128.4,51.9L128.4,51.9z M130.1,44.6
					v0.9h-4.2v-0.9H130.1z M127.3,46.4c0.3,1.1,0.4,2.4,0.4,3.9l-0.9,0.1c0-1.6-0.2-2.9-0.4-3.8L127.3,46.4z M128,42.5
					c0.3,0.4,0.6,0.9,0.9,1.6l-0.8,0.4c-0.3-0.7-0.6-1.2-0.8-1.5L128,42.5z M131.5,52.7h-0.9v-4.8c0-0.1,0-0.2,0-0.3
					c0.1,0,0.2,0,0.3,0h1.2v-5h0.9v2.1h2.7v0.9H133v2h1.9c0.1,0,0.2,0,0.3,0c0,0.1,0,0.2,0,0.3v4.8h-0.9v-0.9h-2.8V52.7z
					 M134.3,50.9v-2.4v-0.1h-0.1h-2.6h-0.1c0,0.1,0,0.1,0,0.1v2.4H134.3z"/>
			</g>
			<g>
				<path class="st7" d="M146.7,43l0.5,0.4c-0.7,1.4-1.5,2.4-2.4,3.2c1,0.5,2.3,0.9,4.1,1.2l-0.3,1c-0.5-0.1-1-0.2-1.5-0.4
					c0,0.1,0,0.2,0,0.3v3.9h-0.9v-0.9h-4.1v0.9h-0.9v-3.9c0-0.1,0-0.2,0-0.2c-0.4,0.2-0.9,0.3-1.4,0.4l-0.6-0.9
					c1.6-0.3,2.9-0.8,4-1.5c-0.5-0.5-0.9-1.1-1.3-1.8c-0.5,0.5-1.1,1-1.7,1.3l-0.6-0.8c0.7-0.3,1.2-0.6,1.7-1.1
					c0.4-0.4,0.8-1,1.1-1.7l0.9,0.2c0,0.1-0.1,0.2-0.1,0.3L146.7,43L146.7,43z M141.4,48.5C141.4,48.5,141.5,48.5,141.4,48.5h5.3
					c0.1,0,0.1,0,0.2,0c-1.2-0.4-2.2-0.8-2.9-1.3C143.3,47.7,142.4,48.1,141.4,48.5z M146.2,50.9v-1.4v-0.1h-0.1h-3.8h-0.1
					c0,0.1,0,0.1,0,0.1v1.4H146.2z M142.5,44c0.3,0.8,0.8,1.5,1.4,2c0.8-0.6,1.4-1.4,1.9-2.2h-3.2C142.6,43.9,142.5,44,142.5,44z"/>
			</g>
			<g>
				<path class="st7" d="M152.6,51.3l-0.3-1c0.4,0,0.8-0.1,1.3-0.2v-5.5h-1.2v-0.9h3.1v0.9h-1V50c0.4-0.1,0.8-0.3,1.1-0.4l0.4,0.9
					c-0.5,0.2-1,0.4-1.6,0.5C153.7,51.1,153.1,51.3,152.6,51.3z M158.5,46.9h0.8v2.5c0,1-0.3,1.8-0.9,2.4c-0.6,0.5-1.4,0.8-2.6,0.9
					l-0.5-0.9c1.1-0.1,1.9-0.4,2.4-0.7c0.5-0.4,0.7-0.9,0.7-1.6v-2.6H158.5z M157.4,45.7v4.5h-0.9v-4.5v-0.5v-0.4h1.6
					c0.1-0.3,0.2-0.6,0.2-0.9h-2.4V43h6v0.9h-2.6c0,0.3-0.1,0.6-0.2,0.9h1.3h0.4h0.5v5.4h-0.9v-4.5
					C160.4,45.7,157.4,45.7,157.4,45.7z M159.9,50.7c0.7,0.2,1.5,0.6,2.3,1.1l-0.4,0.8c-0.9-0.5-1.7-0.9-2.3-1.1L159.9,50.7z"/>
			</g>
			<g>
				<path class="st7" d="M166.9,50.6v-4.2h-1.2v-0.9h2.1v5.4l0.9-0.5l0.1,0.9l-1.7,0.8l-0.5-0.7C166.8,51.2,166.9,50.9,166.9,50.6z
					 M166.7,42.6c0.5,0.4,1,0.9,1.6,1.5l-0.7,0.7c-0.6-0.7-1.1-1.2-1.5-1.5L166.7,42.6z M168.6,47.7v-0.9h1.5v-2.9h-1.2V43h4h0.4
					h0.5v7.2c0,0.4,0,0.7,0.1,0.9c0,0.1,0.1,0.2,0.2,0.2c0.1,0,0.1,0,0.2-0.1c0.1-0.1,0.2-0.6,0.3-1.3l0.9,0.5
					c-0.1,0.8-0.3,1.4-0.6,1.8c-0.2,0.3-0.4,0.4-0.7,0.4s-0.5-0.1-0.6-0.3c-0.4-0.5-0.6-1.6-0.6-3.3v-5.1h-2v2.9h1.3v0.9H171v4.9
					h-0.9v-4.9L168.6,47.7L168.6,47.7z"/>
			</g>
			<g>
				<path class="st7" d="M180.6,49.7c0,0.5-0.1,1-0.2,1.4c-0.1,0.5-0.3,0.9-0.6,1.3l-0.8-0.5c0.3-0.3,0.5-0.7,0.6-1.1
					c0.1-0.4,0.2-0.8,0.2-1.2L180.6,49.7z M185.9,48.5h-4.6h-0.5h-0.4v-5.1h0.4h0.5h1.4c0.1-0.4,0.2-0.7,0.3-0.9l0.9,0.3
					c0,0.2-0.1,0.4-0.2,0.6h2.2h0.4h0.5v5.1h-0.5C186.3,48.5,185.9,48.5,185.9,48.5z M185.9,44.9v-0.7h-4.6v0.7H185.9z M185.9,46.3
					v-0.6h-4.6v0.6H185.9z M181.4,47.1v0.5h4.6v-0.5H181.4z M185.5,51.4c0.1-0.1,0.2-0.2,0.2-0.5c0-0.2,0-0.3,0-0.4l0.9,0.4
					c0,0.2-0.1,0.4-0.1,0.6c-0.1,0.3-0.2,0.5-0.4,0.7c-0.2,0.1-0.4,0.2-0.7,0.2h-3.2c-0.6,0-0.9-0.3-0.9-0.9v-2.1h0.9V51
					c0,0.3,0.1,0.4,0.4,0.4h2.4C185.2,51.5,185.4,51.4,185.5,51.4z M184.1,48.9c0.3,0.4,0.6,0.9,0.9,1.6l-0.8,0.4
					c-0.3-0.7-0.6-1.2-0.8-1.5L184.1,48.9z M187.4,49.3c0.4,0.7,0.9,1.6,1.3,2.7l-0.9,0.3c-0.4-1.1-0.8-1.9-1.2-2.5L187.4,49.3z"/>
			</g>
			<g>
				<path class="st7" d="M196.1,43.1c-0.3,0.8-0.7,1.6-1.2,2.4c-0.5,0.7-1.1,1.4-1.7,2l-0.9-0.5c0.7-0.6,1.3-1.2,1.8-1.9
					s0.8-1.4,1.2-2.3L196.1,43.1z M196.6,46.2l0.8,0.4c-1,1.6-1.9,3.2-2.9,4.5l4.6-0.4c-0.3-0.6-0.6-1.1-0.9-1.5l0.8-0.5
					c0.6,0.9,1.2,2,1.8,3.4l-0.8,0.4c-0.1-0.3-0.3-0.6-0.4-0.9l-6,0.5l-0.3-1C194.4,49.7,195.6,48,196.6,46.2z M198.6,42.7
					c0.4,1,0.8,1.7,1.2,2.3s1.1,1.3,1.9,2.1l-0.9,0.5c-0.7-0.7-1.3-1.4-1.7-2.1c-0.4-0.7-0.8-1.5-1.2-2.5L198.6,42.7z"/>
			</g>
			<g>
				<path class="st7" d="M209.6,45h-2.2c-0.2,0.4-0.4,0.8-0.7,1.2l-1-0.4c0.4-0.5,0.7-1,0.8-1.4c0.2-0.4,0.3-0.9,0.4-1.5l0.9,0.2
					c-0.1,0.4-0.2,0.7-0.2,1h1.9v-1.6h0.9v1.6h3.3V45h-3.3v1.6h4.2v0.9h-9.4v-0.9h4.3V45H209.6z M207.5,52.7h-0.9v-4
					c0-0.1,0-0.2,0-0.3c0.1,0,0.2,0,0.3,0h6.2c0.1,0,0.2,0,0.3,0c0,0.1,0,0.2,0,0.3v4h-0.9v-0.9h-5.1L207.5,52.7L207.5,52.7z
					 M212.6,51v-1.6v-0.1h-0.1h-4.8h-0.1c0,0.1,0,0.1,0,0.1V51H212.6z"/>
			</g>
		</g>
		<g>
			<path class="st8" d="M32.4,54.8c-13,0-23.6-10.6-23.6-23.6S19.4,7.6,32.4,7.6S56,18.1,56,31.2S45.4,54.8,32.4,54.8z M32.4,8.6
				C19.9,8.6,9.8,18.7,9.8,31.2s10.1,22.6,22.6,22.6S55,43.6,55,31.2S44.8,8.6,32.4,8.6z"/>
		</g>
		<g>
			<polygon class="st9" points="68.5,61.2 69.5,60.7 69.5,2.1 68.5,2.1 			"/>
		</g>
		<g>
			<path class="st8" d="M18.9,27v9.3c0,2.9,2.4,5.3,5.3,5.3h16.4c2.9,0,5.3-2.4,5.3-5.3V27H18.9z M31.8,31.6h-2.3v7.1h-1.7v-7.1
				h-2.3V30h6.4v1.6H31.8z M39.3,38L39.3,38c-0.9,0.5-1.9,0.7-3,0.7c-1.3,0-2.3-0.4-3.1-1.2S32,35.7,32,34.4s0.4-2.4,1.3-3.3
				c0.8-0.8,2-1.3,3.3-1.3c0.9,0,1.7,0.1,2.3,0.4l0.1,0.1v1.8L38.8,32c-0.6-0.4-1.4-0.6-2.2-0.6s-1.4,0.3-1.9,0.8
				c-0.5,0.5-0.8,1.2-0.8,2.1c0,0.9,0.2,1.6,0.7,2.1s1.1,0.7,1.9,0.7c0.5,0,0.9-0.1,1.2-0.2v-1.7H36v-1.5h3.4V38H39.3z M40.6,20.8
				H24.2c-2.6,0-4.8,2-5.2,4.5h26.8C45.4,22.8,43.2,20.8,40.6,20.8z M35.7,24.3c-0.5,0-0.9-0.4-0.9-0.9s0.4-0.9,0.9-0.9
				s0.9,0.4,0.9,0.9C36.6,23.8,36.2,24.3,35.7,24.3z M38.8,24.3c-0.5,0-0.9-0.4-0.9-0.9s0.4-0.9,0.9-0.9s0.9,0.4,0.9,0.9
				C39.7,23.8,39.3,24.3,38.8,24.3z M41.9,24.3c-0.5,0-0.9-0.4-0.9-0.9s0.4-0.9,0.9-0.9s0.9,0.4,0.9,0.9
				C42.8,23.8,42.4,24.3,41.9,24.3z"/>
		</g>
	</g>
</g>
<g id="圖層_2">
	<g>
		<g>
			<path class="st10" d="M217.6,58.3H28c-15.4,0-28-12.5-28-28V28C0,12.5,12.5,0,28,0h189.7c15.4,0,28,12.5,28,28v2.3
				C245.6,45.8,233.1,58.3,217.6,58.3z"/>
			<path class="st11" d="M216.5,64.1H29.1C13,64.1,0,51.1,0,35l0,0C0,18.9,13,5.9,29.1,5.9h187.3c16.1,0,29.1,13,29.1,29.1l0,0
				C245.6,51.1,232.6,64.1,216.5,64.1z"/>
			<path class="st12" d="M216.5,60.7H29.1C13,60.7,0,47.6,0,31.5l0,0C0,15.4,13,2.4,29.1,2.4h187.3c16.1,0,29.1,13,29.1,29.1l0,0
				C245.6,47.6,232.6,60.7,216.5,60.7z"/>
		</g>
		<circle class="st13" cx="32.4" cy="31.2" r="23.1"/>
		<polygon class="st9" points="68.5,61.2 69.5,60.7 69.5,2.1 68.5,2.1 		"/>
		<path class="st8" d="M32.2,20.2c-7.5,0-13.6,4.6-13.6,10.3c0,3.1,1.7,5.8,4.5,7.7c-0.8,1.7-2.1,3.7-4.5,4.4c0,0,4.7,0,7.4-2.9
			c1.8,0.7,3.9,1.1,6.1,1.1c7.5,0,13.6-4.6,13.6-10.3C45.8,24.8,39.7,20.2,32.2,20.2z M31.5,27.5h-2.7v8h-1.9v-8h-2.7v-1.7h7.3V27.5
			z M40.1,34.8L40,34.9c-1,0.5-2.1,0.8-3.3,0.8c-1.4,0-2.6-0.4-3.5-1.3c-0.9-0.9-1.3-2.1-1.3-3.6c0-1.5,0.5-2.8,1.5-3.7
			s2.2-1.5,3.7-1.5c1,0,1.9,0.2,2.7,0.5l0.2,0.1v2.1L39.5,28c-0.7-0.4-1.5-0.6-2.5-0.6c-0.9,0-1.6,0.3-2.2,0.9
			c-0.6,0.6-0.9,1.4-0.9,2.4s0.3,1.8,0.8,2.4s1.2,0.8,2.1,0.8c0.5,0,1-0.1,1.4-0.3v-1.9h-2V30h3.9V34.8z"/>
	</g>
</g>
</svg>
