<?xml version="1.0" encoding="utf-8"?>
<!-- Generator: Adobe Illustrator 18.1.1, SVG Export Plug-In . SVG Version: 6.00 Build 0)  -->
<svg version="1.1" xmlns="http://www.w3.org/2000/svg" xmlns:xlink="http://www.w3.org/1999/xlink" x="0px" y="0px"
	 viewBox="0 0 100 100" enable-background="new 0 0 100 100" xml:space="preserve">
<g id="圖層_1" display="none">
	<rect display="inline" fill="none" stroke="#0000FF" stroke-miterlimit="10" width="100" height="100"/>
</g>
<g id="圖層_2">
	<g>
		<g>
			<g>
				<g>
					<g>
						<path fill="#808080" d="M41.9,30.9c-9.4,0-18.8,0-28.2,0c-4.1,0-6.4-2.4-6.6-6.6c0-0.7-0.5-1.6-1.1-2.1
							c-1.1-1.1-2.4-2-3.7-3.1c-0.6-0.4-1.1-0.9-1.7-1.3L0,17.3l0.6-0.5c0.6-0.5,1.1-0.9,1.7-1.3c1.3-1.1,2.6-2.1,3.8-3.1
							c0.5-0.5,0.9-1.3,1-2C7.3,5.9,9.7,3.5,14,3.5c18.3,0,36.7,0,55,0c4.3,0,6.7,2.5,6.7,6.7c0,5,0,9.6,0,14.1
							c0,4.2-2.5,6.6-6.6,6.6C60.1,30.9,51,30.9,41.9,30.9z M2,17.3c0.4,0.3,0.7,0.6,1.1,0.8c1.3,1,2.6,2,3.8,3.1
							c0.8,0.8,1.4,2,1.4,3c0.2,3.6,2,5.4,5.4,5.4c18.5,0,37,0,55.4,0c3.5,0,5.3-1.8,5.4-5.3c0-4.5,0-9.1,0-14.1
							c0-3.6-1.9-5.5-5.5-5.5c-18.3,0-36.7,0-55,0c-3.6,0-5.5,1.8-5.7,5.6c0,1-0.6,2.1-1.4,2.8c-1.2,1.1-2.5,2.1-3.9,3.2
							C2.7,16.7,2.4,17,2,17.3z"/>
					</g>
					<g>
						<g>
							<circle fill="#808080" cx="16.7" cy="17.2" r="2.4"/>
						</g>
						<g>
							<circle fill="#808080" cx="27.4" cy="17.2" r="2.4"/>
						</g>
						<g>
							<circle fill="#808080" cx="38.1" cy="17.2" r="2.4"/>
						</g>
						<g>
							<circle fill="#808080" cx="48.8" cy="17.2" r="2.4"/>
						</g>
						<g>
							<circle fill="#808080" cx="59.5" cy="17.2" r="2.4"/>
						</g>
					</g>
				</g>
				<g>
					<g>
						<path fill="#808080" d="M52.8,63.7c-9.4,0-18.8,0-28.2,0c-4.1,0-6.4-2.4-6.6-6.6c0-0.7-0.5-1.6-1.1-2.1
							c-1.1-1.1-2.4-2-3.7-3.1c-0.6-0.4-1.1-0.9-1.7-1.3L10.9,50l0.6-0.5c0.6-0.5,1.1-0.9,1.7-1.3c1.3-1.1,2.6-2.1,3.8-3.1
							c0.5-0.5,0.9-1.3,1-2c0.2-4.5,2.6-6.8,6.9-6.8c18.3,0,36.7,0,55,0c4.3,0,6.7,2.5,6.7,6.7c0,5,0,9.6,0,14.1
							c0,4.2-2.5,6.6-6.6,6.6C70.9,63.7,61.9,63.7,52.8,63.7z M12.9,50c0.4,0.3,0.7,0.6,1.1,0.8c1.3,1,2.6,2,3.8,3.1
							c0.8,0.8,1.4,2,1.4,3c0.2,3.6,2,5.4,5.4,5.4c18.5,0,37,0,55.4,0c3.5,0,5.3-1.8,5.4-5.3c0-4.5,0-9.1,0-14.1
							c0-3.6-1.9-5.5-5.5-5.5c-18.3,0-36.7,0-55,0c-3.6,0-5.5,1.8-5.7,5.6c0,1-0.6,2.1-1.4,2.8c-1.2,1.1-2.5,2.1-3.9,3.2
							C13.6,49.5,13.3,49.8,12.9,50z"/>
					</g>
					<g>
						<g>
							<circle fill="#808080" cx="27.6" cy="50" r="2.4"/>
						</g>
						<g>
							<circle fill="#808080" cx="38.3" cy="50" r="2.4"/>
						</g>
						<g>
							<circle fill="#808080" cx="49" cy="50" r="2.4"/>
						</g>
						<g>
							<circle fill="#808080" cx="59.7" cy="50" r="2.4"/>
						</g>
						<g>
							<circle fill="#808080" cx="70.4" cy="50" r="2.4"/>
						</g>
					</g>
				</g>
				<g>
					<g>
						<path fill="#808080" d="M66.1,96.5c-9.4,0-18.8,0-28.2,0c-4.1,0-6.4-2.4-6.6-6.6c0-0.7-0.5-1.6-1.1-2.1
							c-1.1-1.1-2.4-2-3.7-3.1c-0.6-0.4-1.1-0.9-1.7-1.3l-0.6-0.5l0.6-0.5c0.6-0.5,1.1-0.9,1.7-1.3c1.3-1.1,2.6-2.1,3.8-3.1
							c0.5-0.5,0.9-1.3,1-2c0.2-4.5,2.6-6.8,6.9-6.8c18.3,0,36.7,0,55,0c4.3,0,6.7,2.5,6.7,6.7c0,5,0,9.6,0,14.1
							c0,4.2-2.5,6.6-6.6,6.6C84.3,96.5,75.2,96.5,66.1,96.5z M26.2,82.8c0.4,0.3,0.7,0.6,1.1,0.8c1.3,1,2.6,2,3.8,3.1
							c0.8,0.8,1.4,2,1.4,3c0.2,3.6,2,5.4,5.4,5.4c18.5,0,37,0,55.4,0c3.5,0,5.3-1.8,5.4-5.3c0-4.5,0-9.1,0-14.1
							c0-3.6-1.9-5.5-5.5-5.5c-18.3,0-36.7,0-55,0c-3.6,0-5.5,1.8-5.7,5.6c0,1-0.6,2.1-1.4,2.8c-1.2,1.1-2.5,2.1-3.9,3.2
							C26.9,82.2,26.6,82.5,26.2,82.8z"/>
					</g>
					<g>
						<g>
							<circle fill="#808080" cx="40.9" cy="82.8" r="2.4"/>
						</g>
						<g>
							<circle fill="#808080" cx="51.6" cy="82.8" r="2.4"/>
						</g>
						<g>
							<circle fill="#808080" cx="62.3" cy="82.8" r="2.4"/>
						</g>
						<g>
							<circle fill="#808080" cx="73" cy="82.8" r="2.4"/>
						</g>
						<g>
							<circle fill="#808080" cx="83.7" cy="82.8" r="2.4"/>
						</g>
					</g>
				</g>
			</g>
		</g>
	</g>
</g>
</svg>
