<?xml version="1.0" encoding="utf-8"?>
<!-- Generator: Adobe Illustrator 18.1.1, SVG Export Plug-In . SVG Version: 6.00 Build 0)  -->
<svg version="1.1" xmlns="http://www.w3.org/2000/svg" xmlns:xlink="http://www.w3.org/1999/xlink" x="0px" y="0px"
	 viewBox="0 0 150 150" enable-background="new 0 0 150 150" xml:space="preserve">
<g id="圖層_2" display="none">
	<rect x="0.1" y="-0.1" display="inline" fill="none" stroke="#0092EB" stroke-miterlimit="10" width="150" height="150"/>
</g>
<g id="圖層_1">
	<g>
		<path fill="#0092EB" d="M75.1,128.1c-1.1,0-2,0.9-2,2.1c0,1.1,0.9,2,2,2c1.1,0,2.1-0.9,2.1-2C77.1,129,76.2,128.1,75.1,128.1z
			 M75.1,107.9c-1.1,0-2,1-2,2.1c0,1.1,0.9,2.1,2,2.1c1.1,0,2.1-1,2.1-2.1C77.1,108.9,76.2,107.9,75.1,107.9z M75.1,121.4
			c-1.1,0-2,1-2,2.1c0,1.1,0.9,2.1,2,2.1c1.1,0,2.1-1,2.1-2.1C77.1,122.3,76.2,121.4,75.1,121.4z M75.1,114.7c-1.1,0-2,0.9-2,2.1
			c0,1.1,0.9,2,2,2c1.1,0,2.1-0.9,2.1-2C77.1,115.6,76.2,114.7,75.1,114.7z M43.6,59.2c1,0.5,2.3,0.2,2.9-0.8c0.5-1,0.2-2.2-0.8-2.7
			c-1-0.7-2.2-0.2-2.7,0.7C42.4,57.3,42.8,58.6,43.6,59.2z M103.6,75c0-7.9-3.2-15-8.3-20.2c-5.3-5.1-12.4-8.3-20.2-8.3
			s-15,3.2-20.1,8.3C49.7,60,46.5,67.1,46.5,75c0,7.9,3.2,15,8.4,20.1c5.1,5.3,12.3,8.4,20.1,8.4s15-3.2,20.2-8.4
			C100.5,89.9,103.6,82.8,103.6,75z M75.1,100.7c-7.1,0-13.6-2.8-18.2-7.6c-4.7-4.6-7.5-11.1-7.5-18.2c0-7.1,2.8-13.6,7.5-18.2
			c4.6-4.7,11.1-7.6,18.2-7.6c7.1,0,13.6,2.8,18.2,7.6c4.7,4.6,7.5,11.1,7.5,18.2c0,7.1-2.8,13.6-7.5,18.2
			C88.6,97.8,82.2,100.7,75.1,100.7z M43,93.4c0.6,1,1.7,1.3,2.7,0.8c1-0.5,1.3-1.7,0.8-2.7c-0.6-1-1.9-1.3-2.9-0.8
			C42.8,91.3,42.4,92.5,43,93.4z M124.6,46.3c-0.5-1-1.7-1.3-2.7-0.8c-1,0.7-1.3,1.9-0.8,2.8c0.5,1,1.9,1.3,2.8,0.8
			C124.8,48.6,125.3,47.3,124.6,46.3z M79.9,10.5l24.3,14l24.3,14c0.2-0.4,0.4-0.8,0.8-1.2l-24.3-14L80.5,9.2
			C80.4,9.6,80.2,10.2,79.9,10.5z M112.3,94.1c-1-0.7-2.2-0.2-2.7,0.7c-0.7,1-0.2,2.3,0.7,2.8c1,0.5,2.3,0.2,2.9-0.8
			C113.6,95.9,113.3,94.7,112.3,94.1z M75.1,28.4c1.1,0,2.1-0.9,2.1-2c0-1.2-1-2.1-2.1-2.1c-1.1,0-2,0.9-2,2.1
			C73.1,27.6,74,28.4,75.1,28.4z M128.9,43.9c1.5,2.8,5.1,3.7,8,2.2c2.7-1.6,3.7-5.3,2.1-8c-1.6-2.8-5.1-3.8-8-2.2
			C128.2,37.5,127.3,41.1,128.9,43.9z M133.3,103c0.4,0,1,0,1.5,0.1V46.8c-0.6,0.1-1.1,0.1-1.5,0.1V103z M118.1,97.4
			c-1-0.5-2.2-0.2-2.7,0.8c-0.5,1-0.2,2.3,0.8,2.8c1,0.5,2.2,0.2,2.7-0.8C119.4,99.2,119.1,98,118.1,97.4z M113,53.1
			c-0.6-1-1.9-1.3-2.9-0.8c-1,0.5-1.3,1.8-0.7,2.7c0.6,1,1.7,1.3,2.7,0.8C113.3,55.3,113.6,54,113,53.1z M118.8,49.7
			c-0.6-1-1.8-1.3-2.7-0.8c-1,0.5-1.3,1.9-0.8,2.8c0.6,1,1.8,1.3,2.7,0.7C119.1,51.9,119.4,50.7,118.8,49.7z M124,100.8
			c-1-0.5-2.3-0.2-2.8,0.8c-0.6,1-0.2,2.2,0.8,2.7c1,0.7,2.2,0.2,2.7-0.7C125.3,102.6,124.8,101.3,124,100.8z M32.1,97.4
			c-1,0.7-1.3,1.9-0.8,2.8c0.6,1,1.9,1.3,2.9,0.8c1-0.5,1.3-1.9,0.7-2.8C34.2,97.2,33,96.8,32.1,97.4z M13.3,46.1
			c2.7,1.5,6.3,0.7,8-2.2c1.5-2.7,0.7-6.3-2.2-8c-2.8-1.6-6.4-0.7-8,2.2C9.5,40.8,10.5,44.4,13.3,46.1z M26.3,100.8
			c-1,0.5-1.3,1.9-0.8,2.8c0.6,0.9,1.7,1.3,2.7,0.7c1-0.5,1.3-1.8,0.8-2.7C28.4,100.6,27.2,100.2,26.3,100.8z M28.2,45.5
			c-1-0.5-2.2-0.2-2.7,0.8c-0.6,1-0.2,2.3,0.8,2.8c1,0.6,2.2,0.2,2.7-0.8C29.5,47.4,29.2,46.2,28.2,45.5z M37.8,94.1
			c-1,0.6-1.3,1.8-0.8,2.7c0.7,1,1.9,1.3,2.8,0.8c1-0.5,1.3-1.9,0.8-2.8C40.1,93.9,38.8,93.4,37.8,94.1z M15.4,103.1
			c0.4-0.1,1-0.1,1.4-0.1v-56c-0.4,0-1,0-1.4-0.1V103.1z M34.1,48.9c-1-0.5-2.3-0.2-2.9,0.8c-0.5,1-0.2,2.2,0.8,2.7
			c1,0.7,2.2,0.3,2.7-0.7C35.4,50.8,35.1,49.4,34.1,48.9z M21.3,106c-1.6-2.8-5.2-3.8-8-2.2c-2.8,1.6-3.8,5.3-2.2,8
			c1.6,2.8,5.1,3.7,8,2.2C22,112.4,22.9,108.8,21.3,106z M136.9,103.8c-2.8-1.6-6.5-0.7-8,2.2c-1.6,2.7-0.7,6.3,2.1,8
			c2.8,1.5,6.4,0.7,8-2.2C140.6,109.1,139.6,105.5,136.9,103.8z M104.2,125.3l-24.3,14c0.3,0.4,0.4,0.7,0.5,1.2
			c-0.9-2-2.9-3.5-5.3-3.5c-3.2,0-5.8,2.6-5.8,5.9c0,3.2,2.6,5.8,5.8,5.8c3.3,0,5.9-2.6,5.9-5.8c0-0.8-0.2-1.5-0.4-2.2l24.4-14.1
			l24.3-14c-0.3-0.4-0.5-0.9-0.8-1.3L104.2,125.3z M70.2,139.3l-24.3-14l-24.3-14c-0.2,0.4-0.4,0.9-0.8,1.3l24.3,14l24.4,14.1
			C69.7,140.2,70,139.7,70.2,139.3z M75.1,12.8c3.3,0,5.9-2.6,5.9-5.8c0-3.3-2.6-5.9-5.9-5.9c-3.2,0-5.8,2.6-5.8,5.9
			C69.3,10.2,71.9,12.8,75.1,12.8z M107.2,56.3c-0.7-0.9-1.9-1.3-2.8-0.7c-1,0.5-1.3,1.7-0.8,2.7c0.5,1,1.9,1.3,2.8,0.8
			C107.5,58.6,107.8,57.3,107.2,56.3z M75.1,35.2c1.1,0,2.1-1,2.1-2.1c0-1.1-1-2-2.1-2c-1.1,0-2,0.9-2,2
			C73.1,34.2,74,35.2,75.1,35.2z M75.1,41.9c1.1,0,2.1-0.9,2.1-2c0-1.2-1-2.1-2.1-2.1c-1.1,0-2,0.9-2,2.1C73.1,41,74,41.9,75.1,41.9
			z M104.4,94.2c1,0.6,2.2,0.2,2.8-0.8c0.6-1,0.2-2.2-0.8-2.7c-1-0.5-2.3-0.2-2.8,0.8C103.1,92.5,103.4,93.7,104.4,94.2z M39.9,52.3
			c-1-0.5-2.2-0.2-2.8,0.8c-0.5,1-0.2,2.2,0.8,2.7c1,0.5,2.3,0.2,2.8-0.8C41.2,54,40.9,52.8,39.9,52.3z M45.9,24.5l24.3-14
			c-0.2-0.3-0.5-0.9-0.7-1.3L45.2,23.3l-24.3,14c0.3,0.4,0.6,0.8,0.8,1.2L45.9,24.5z M75.1,21.8c1.1,0,2.1-1,2.1-2.1
			c0-1.1-1-2-2.1-2c-1.1,0-2,0.9-2,2C73.1,20.8,74,21.8,75.1,21.8z M75,56c-7.7,0-13.9,6.2-13.9,13.9c0,4.8,2.4,9.2,6.4,11.7
			l3.3,9.1h8.3l3.3-9.1c4.1-2.6,6.5-6.9,6.5-11.7C88.9,62.2,82.6,56,75,56z M81.3,80l-0.5,0.3l-3,8.4h-5.6l-3-8.4L68.6,80
			c-3.5-2.2-5.6-6-5.6-10.1c0-6.6,5.4-11.9,11.9-11.9c6.6,0,11.9,5.4,11.9,11.9C86.9,74,84.8,77.8,81.3,80z M78.6,92.2h-7.2
			c-0.7,0-1.2,0.6-1.2,1.2c0,0.7,0.6,1.2,1.2,1.2h0.3v1.9c0,0.9,0.7,1.6,1.6,1.6h3.4c0.9,0,1.6-0.7,1.6-1.6v-1.9h0.3
			c0.7,0,1.2-0.6,1.2-1.2C79.8,92.7,79.2,92.2,78.6,92.2z M75,66.3l-2.4,4.9l-3.7-3.7l2.5,13.9c0.1,0.3,0.3,0.5,0.6,0.4
			c0.3-0.1,0.5-0.3,0.4-0.6l-1.9-10.4l2.3,2.3l2.1-4.2l2.1,4.2l2.3-2.3l-1.9,10.4c-0.1,0.3,0.1,0.6,0.4,0.6c0,0,0.1,0,0.1,0
			c0.3,0,0.5-0.2,0.5-0.5l2.5-13.9l-3.7,3.7L75,66.3z"/>
		<path fill="#0092EB" d="M75.1,149.9c-3.9,0-7-3.1-7-7c0-0.5,0.1-1.1,0.2-1.6L21,114.1c-0.4,0.4-0.8,0.7-1.3,1
			c-1.1,0.6-2.3,0.9-3.5,0.9l0,0c-2.5,0-4.8-1.3-6.1-3.5c-0.9-1.6-1.2-3.4-0.7-5.2c0.5-1.9,1.7-3.4,3.3-4.4c0.5-0.3,1-0.5,1.5-0.7
			V47.7c-0.5-0.2-1-0.4-1.5-0.6c-1.7-1-2.9-2.5-3.4-4.4c-0.5-1.8-0.2-3.7,0.7-5.2c1.9-3.3,6.3-4.5,9.6-2.6c0.5,0.3,0.9,0.6,1.3,1
			L68.3,8.6c-0.1-0.5-0.2-1-0.2-1.6c0-3.9,3.1-7.1,7-7.1c3.9,0,7.1,3.2,7.1,7.1c0,0.6-0.1,1.1-0.2,1.6l47.1,27.2
			c0.4-0.4,0.8-0.7,1.3-1c3.4-1.9,7.7-0.7,9.6,2.6c0.9,1.6,1.2,3.5,0.7,5.3c-0.5,1.8-1.6,3.3-3.2,4.3c-0.5,0.3-1,0.5-1.5,0.6v54.5
			c0.5,0.2,1,0.4,1.5,0.6c1.6,1,2.8,2.6,3.3,4.4c0.4,1.8,0.2,3.7-0.8,5.2c-1.3,2.2-3.5,3.5-6.1,3.5c-1.2,0-2.4-0.3-3.5-0.9
			c-0.5-0.3-0.9-0.6-1.3-1l-47.2,27.2c0.1,0.5,0.2,1.1,0.2,1.6C82.1,146.8,79,149.9,75.1,149.9z M70.5,142.4c0,0.2,0,0.4,0,0.5
			c0,2.5,2.1,4.6,4.6,4.6c2.6,0,4.7-2.1,4.7-4.6c0-0.6-0.1-1.2-0.4-1.8l-0.1-0.2l0,0c-0.8-1.7-2.4-2.8-4.3-2.8
			c-2.1,0-3.9,1.5-4.4,3.4L70.5,142.4z M23,110.7l47.1,27.2c1.3-1.3,3-2.1,4.9-2.1c1.9,0,3.7,0.7,5,2l47.1-27.2c0,0,0,0,0,0
			c-0.5-1.8-0.2-3.7,0.8-5.2c0.9-1.6,2.4-2.8,4.2-3.3V47.7c-1.8-0.5-3.3-1.7-4.2-3.3c-0.9-1.5-1.2-3.4-0.7-5.3c0,0,0,0,0,0L80,12
			c-1.3,1.2-3,2-5,2c-1.9,0-3.7-0.8-4.9-2L23,39.1c0.5,1.7,0.3,3.7-0.6,5.4c-1,1.7-2.5,2.8-4.3,3.3v54.3c1.8,0.5,3.4,1.7,4.3,3.3
			C23.3,107.1,23.5,109,23,110.7z M133.9,104.2c-1.7,0-3.2,0.9-4,2.4c-0.6,1.1-0.8,2.3-0.5,3.5c0.3,1.2,1.1,2.3,2.2,2.9
			c2.1,1.1,5.1,0.4,6.3-1.8c0.6-1,0.8-2.3,0.5-3.5c-0.3-1.2-1.1-2.3-2.2-2.9C135.6,104.5,134.8,104.2,133.9,104.2z M14.9,104.4
			c-0.4,0.1-0.7,0.3-1,0.4c-1.1,0.7-1.9,1.7-2.3,2.9c-0.3,1.2-0.1,2.4,0.5,3.4c0.9,1.5,2.4,2.4,4,2.4l0,0c0.8,0,1.6-0.2,2.4-0.6
			c2.2-1.3,3-4.1,1.7-6.4c-1-1.7-3.1-2.7-5-2.3L14.9,104.4z M133.9,36.3c-0.8,0-1.6,0.2-2.3,0.6c-1,0.6-1.8,1.6-2.1,2.9
			c-0.3,1.2-0.2,2.5,0.5,3.5c0.8,1.5,2.3,2.4,4,2.4l0,0c0.8,0,1.7-0.2,2.4-0.6c1-0.6,1.8-1.6,2.1-2.8c0.3-1.2,0.1-2.4-0.5-3.5
			C137.1,37.2,135.6,36.3,133.9,36.3z M16.2,36.3c-1.7,0-3.2,0.9-4,2.4c-0.6,1-0.8,2.3-0.5,3.4c0.3,1.2,1.1,2.3,2.2,2.9
			c2.1,1.2,5.1,0.4,6.4-1.8c1.3-2.2,0.5-5.1-1.8-6.4C17.8,36.5,17,36.3,16.2,36.3z M75.1,2.3c-2.5,0-4.6,2.1-4.6,4.7
			c0,2.5,2.1,4.6,4.6,4.6c2,0,3.6-1.2,4.3-2.8l0.3-1.4l0,0c0-0.1,0-0.3,0-0.4C79.8,4.3,77.7,2.3,75.1,2.3z M75.1,133.4
			c-1.7,0-3.2-1.4-3.2-3.2c0-1.8,1.4-3.3,3.2-3.3c1.8,0,3.3,1.5,3.3,3.3C78.3,131.9,76.8,133.4,75.1,133.4z M75.1,129.3
			c-0.5,0-0.8,0.4-0.8,0.9c0,0.4,0.3,0.8,0.8,0.8c0.5,0,0.9-0.4,0.9-0.8C76,129.7,75.5,129.3,75.1,129.3z M75.1,126.7
			c-1.7,0-3.2-1.5-3.2-3.3c0-1.8,1.4-3.3,3.2-3.3c1.7,0,3.3,1.5,3.3,3.3C78.3,125.2,76.8,126.7,75.1,126.7z M75.1,122.5
			c-0.4,0-0.8,0.4-0.8,0.9c0,0.5,0.4,0.9,0.8,0.9c0.4,0,0.9-0.5,0.9-0.9C76,123,75.5,122.5,75.1,122.5z M75.1,119.9
			c-1.7,0-3.2-1.4-3.2-3.1c0-1.8,1.4-3.3,3.2-3.3c1.8,0,3.3,1.5,3.3,3.3C78.3,118.5,76.8,119.9,75.1,119.9z M75.1,115.9
			c-0.5,0-0.8,0.4-0.8,0.9c0,0.4,0.3,0.8,0.8,0.8c0.5,0,0.9-0.4,0.9-0.8C76,116.2,75.5,115.9,75.1,115.9z M75.1,113.2
			c-1.7,0-3.2-1.5-3.2-3.3c0-1.8,1.4-3.3,3.2-3.3c1.7,0,3.3,1.5,3.3,3.3C78.3,111.7,76.8,113.2,75.1,113.2z M75.1,109.1
			c-0.4,0-0.8,0.4-0.8,0.9c0,0.5,0.4,0.9,0.8,0.9c0.4,0,0.9-0.5,0.9-0.9C76,109.5,75.5,109.1,75.1,109.1z M122.9,105.8L122.9,105.8
			c-0.6,0-1.2-0.2-1.7-0.5c-0.7-0.4-1.2-1.1-1.4-1.9c-0.2-0.8-0.1-1.7,0.3-2.4c0.8-1.5,2.9-2.1,4.4-1.2c0.8,0.5,1.3,1.3,1.5,2.1
			c0.2,0.8,0,1.7-0.4,2.4C125.1,105.2,124,105.8,122.9,105.8z M122.9,101.7c-0.3,0-0.6,0.1-0.8,0.4c-0.1,0.2-0.1,0.4-0.1,0.6
			c0.1,0.2,0.2,0.4,0.4,0.5c0.6,0.4,0.9,0.1,1.2-0.2c0.2-0.2,0.2-0.5,0.1-0.6c-0.1-0.2-0.2-0.5-0.4-0.6
			C123.3,101.7,123.1,101.7,122.9,101.7z M27.2,105.8c-1.1,0-2.1-0.6-2.7-1.5c-0.5-0.8-0.6-1.7-0.3-2.6c0.2-0.8,0.8-1.5,1.5-1.9
			c1.5-0.8,3.5-0.3,4.3,1.2c0.4,0.7,0.5,1.6,0.3,2.4c-0.2,0.8-0.8,1.5-1.5,1.9C28.4,105.6,27.8,105.8,27.2,105.8z M27.2,101.7
			c-0.1,0-0.3,0-0.4,0.1c-0.3,0.1-0.4,0.4-0.4,0.5c-0.1,0.2,0,0.5,0.1,0.7c0.2,0.3,0.7,0.5,1,0.2c0.3-0.2,0.4-0.4,0.5-0.5
			c0.1-0.2,0-0.4-0.1-0.6C27.8,101.9,27.5,101.7,27.2,101.7z M75.1,104.7c-8,0-15.4-3.1-21-8.8c-5.6-5.5-8.8-13-8.8-21
			c0-8,3.1-15.4,8.8-21.1c5.6-5.6,13-8.7,21-8.7c7.9,0,15.4,3.1,21.1,8.7c5.6,5.7,8.7,13.2,8.7,21.1c0,7.9-3.1,15.4-8.7,21
			C90.5,101.6,83,104.7,75.1,104.7z M75.1,47.6c-7.3,0-14.2,2.8-19.3,8c-5.2,5.2-8.1,12.1-8.1,19.4c0,7.4,2.9,14.2,8.1,19.3
			c5.1,5.2,12,8.1,19.3,8.1c7.3,0,14.2-2.9,19.4-8.1c5.1-5.1,8-12,8-19.3c0-7.3-2.8-14.2-8-19.4C89.2,50.4,82.3,47.6,75.1,47.6z
			 M117.1,102.4L117.1,102.4c-0.5,0-1.1-0.1-1.6-0.4c-1.5-0.8-2.1-2.9-1.2-4.4c0.9-1.5,2.8-2.1,4.4-1.2c1.6,1,2.1,2.9,1.2,4.5
			C119.3,101.8,118.2,102.4,117.1,102.4z M117.1,98.3c-0.3,0-0.6,0.2-0.7,0.4c-0.2,0.4-0.1,1,0.3,1.2c0.1,0.1,0.3,0.1,0.4,0.1l0,0
			c0.3,0,0.6-0.2,0.7-0.4c0.2-0.4,0.1-1-0.4-1.3C117.4,98.3,117.2,98.3,117.1,98.3z M33.1,102.4c-1.2,0-2.3-0.6-2.9-1.6
			c-0.8-1.5-0.3-3.4,1.1-4.4c1.7-1,3.6-0.3,4.4,1.2c0.4,0.7,0.6,1.6,0.4,2.5c-0.2,0.9-0.8,1.6-1.5,2
			C34.2,102.3,33.7,102.4,33.1,102.4z M33.1,98.3c-0.1,0-0.3,0-0.4,0.1c-0.4,0.3-0.6,0.8-0.3,1.2c0.3,0.5,0.9,0.5,1.2,0.3
			c0.2-0.1,0.3-0.3,0.4-0.5c0-0.1,0.1-0.4-0.1-0.7C33.6,98.5,33.3,98.3,33.1,98.3z M75.1,101.9c-7.3,0-14-2.8-19-7.9
			c-5.1-5-7.9-11.7-7.9-19c0-7.3,2.8-14,7.9-19c5-5.1,11.7-7.9,19-7.9c7.3,0,14,2.8,19,7.9c5.1,5,7.9,11.7,7.9,19
			c0,7.3-2.8,14-7.9,19C89.1,99,82.3,101.9,75.1,101.9z M75.1,50.4c-6.6,0-12.8,2.6-17.3,7.2c-4.7,4.6-7.2,10.7-7.2,17.3
			c0,6.6,2.6,12.8,7.2,17.3c4.6,4.7,10.7,7.2,17.3,7.2c6.6,0,12.8-2.6,17.3-7.2c4.7-4.6,7.2-10.7,7.2-17.3c0-6.6-2.6-12.8-7.2-17.3
			C87.8,53,81.7,50.4,75.1,50.4z M76.7,99.3h-3.4c-1.5,0-2.8-1.2-2.8-2.8v-0.9c-0.9-0.4-1.5-1.2-1.5-2.2c0-0.8,0.4-1.4,0.9-1.9
			l-3.3-9.2c-4.2-2.8-6.7-7.4-6.7-12.5c0-8.3,6.8-15.1,15.1-15.1S90,61.5,90,69.8c0,5.1-2.5,9.7-6.7,12.5l-3.3,9.2
			c0.6,0.4,0.9,1.1,0.9,1.9c0,1-0.6,1.9-1.5,2.2v0.9C79.5,98.1,78.2,99.3,76.7,99.3z M72.6,93.4l0.3,1.3v1.9c0,0.2,0.2,0.4,0.4,0.4
			h3.4c0.2,0,0.4-0.2,0.4-0.4v-3.1l1.5,0L72.6,93.4z M73,87.5h3.9l1.7-4.7C78.4,82.9,78.2,83,78,83l-0.3,0c-0.9-0.2-1.6-1.1-1.4-2
			l1.2-6.6l-0.8,0.8L75,71.6l-1.7,3.5l-0.8-0.8l1.2,6.6c0.1,0.5,0,0.9-0.3,1.3c-0.3,0.4-0.7,0.6-1.1,0.7L72,83c-0.2,0-0.4,0-0.6-0.1
			L73,87.5z M75,59.1c-5.9,0-10.8,4.8-10.8,10.8c0,3.7,1.9,7.1,5,9.1l0.6,0.4L67,64l5.2,5.2l2.7-5.6l2.7,5.6l5.2-5.2l-2.8,15.4
			l0.6-0.3c3.2-2,5.1-5.4,5.1-9.1C85.7,63.9,80.9,59.1,75,59.1z M111.2,99c-0.6,0-1.1-0.1-1.6-0.4c-0.8-0.5-1.3-1.3-1.5-2.1
			c-0.2-0.8,0-1.7,0.4-2.4c0.9-1.4,2.9-1.9,4.4-1c1.5,0.8,2,2.7,1.2,4.3C113.5,98.4,112.4,99,111.2,99z M111.2,95
			c-0.3,0-0.6,0.2-0.7,0.4c-0.2,0.2-0.1,0.5-0.1,0.6c0.1,0.2,0.2,0.5,0.4,0.6c0.3,0.1,1,0,1.2-0.3c0.2-0.4,0.1-0.9-0.3-1.1
			C111.5,95,111.4,95,111.2,95z M38.9,99C38.9,99,38.9,99,38.9,99c-1.1,0-2.2-0.6-2.8-1.6c-0.9-1.7-0.4-3.6,1.2-4.4
			c1.2-0.8,3.5-0.4,4.4,1.1c0.9,1.6,0.3,3.6-1.2,4.5C40,98.9,39.5,99,38.9,99z M38.9,95c-0.1,0-0.3,0-0.4,0.1
			c-0.5,0.3-0.6,0.8-0.4,1.2c0.2,0.3,0.8,0.5,1.2,0.3c0.4-0.2,0.5-0.8,0.3-1.2C39.5,95.1,39.2,95,38.9,95z M105.4,95.7L105.4,95.7
			c-0.6,0-1.1-0.1-1.6-0.4c-0.7-0.4-1.3-1.1-1.5-1.9c-0.2-0.8-0.1-1.7,0.3-2.4c0.8-1.5,2.9-2.1,4.5-1.2c0.7,0.4,1.3,1.1,1.5,1.9
			c0.2,0.8,0.1,1.7-0.3,2.4C107.6,95.1,106.5,95.7,105.4,95.7z M105.4,91.6c-0.3,0-0.6,0.1-0.8,0.4c-0.1,0.2-0.1,0.4-0.1,0.6
			c0,0.1,0.1,0.3,0.4,0.5c0.4,0.2,1,0.1,1.3-0.4c0.1-0.1,0.1-0.4,0-0.6c0-0.1-0.1-0.3-0.4-0.5C105.8,91.7,105.6,91.6,105.4,91.6z
			 M44.7,95.7c-1.1,0-2.2-0.6-2.8-1.6c-0.8-1.5-0.4-3.4,1.1-4.3c1.7-0.9,3.7-0.3,4.5,1.2c0.9,1.6,0.3,3.5-1.2,4.3
			C45.8,95.5,45.3,95.7,44.7,95.7z M44.7,91.6c-0.2,0-0.3,0-0.5,0.1c-0.3,0.2-0.4,0.7-0.2,1.1c0.2,0.4,0.7,0.5,1.1,0.3
			c0.4-0.2,0.5-0.7,0.3-1.1C45.3,91.7,44.9,91.6,44.7,91.6z M105.4,60.6c-1.2,0-2.3-0.6-2.8-1.6c-0.9-1.6-0.3-3.5,1.2-4.3
			c1.2-0.8,3.3-0.4,4.4,1c0.5,0.9,0.6,1.8,0.4,2.7c-0.2,0.8-0.8,1.5-1.5,1.9C106.6,60.5,106,60.6,105.4,60.6z M105.4,56.6
			c-0.1,0-0.3,0-0.4,0.1c-0.5,0.3-0.6,0.8-0.4,1.2c0.3,0.5,0.9,0.5,1.2,0.3c0.2-0.1,0.3-0.4,0.4-0.5c0.1-0.3,0-0.5-0.1-0.7
			C106.1,56.7,105.7,56.6,105.4,56.6z M44.7,60.6L44.7,60.6c-0.6,0-1.1-0.1-1.6-0.4c-1.5-0.9-2-2.9-1.1-4.5c1-1.5,3-2,4.4-1.1
			c1.5,0.8,2,2.7,1.2,4.3C47,60,45.9,60.6,44.7,60.6z M44.7,56.6c-0.3,0-0.6,0.2-0.7,0.4c-0.2,0.4,0,1,0.3,1.2
			c0.2,0.1,0.9,0.2,1.2-0.3c0.2-0.4,0.1-0.9-0.3-1.1C45,56.6,44.8,56.6,44.7,56.6z M111.3,57.2L111.3,57.2c-1.1,0-2.2-0.6-2.8-1.6
			c-0.4-0.7-0.6-1.5-0.4-2.4c0.2-0.8,0.8-1.5,1.5-2c1.5-0.8,3.6-0.3,4.5,1.2c0.9,1.6,0.3,3.5-1.2,4.4
			C112.3,57.1,111.8,57.2,111.3,57.2z M111.2,53.2c-0.2,0-0.3,0-0.5,0.1c-0.2,0.1-0.3,0.3-0.4,0.5c0,0.2,0,0.4,0.1,0.6
			c0.3,0.5,0.8,0.6,1.2,0.4c0.4-0.2,0.5-0.7,0.3-1.1C111.8,53.3,111.5,53.2,111.2,53.2z M38.9,57.2L38.9,57.2
			c-0.6,0-1.1-0.1-1.6-0.4c-1.6-0.9-2.1-2.8-1.2-4.3c1-1.6,3-2.1,4.5-1.2c0.7,0.4,1.3,1.1,1.5,1.9c0.2,0.8,0.1,1.7-0.3,2.4
			C41.2,56.6,40.1,57.2,38.9,57.2z M38.9,53.2c-0.3,0-0.6,0.2-0.9,0.5c-0.2,0.3-0.1,0.8,0.4,1c0.3,0.2,1,0.2,1.2-0.3
			c0.1-0.2,0.1-0.4,0.1-0.6c0-0.1-0.1-0.3-0.4-0.5C39.2,53.3,39.1,53.2,38.9,53.2z M117,53.9c-1.1,0-2.1-0.6-2.7-1.6
			c-0.9-1.6-0.3-3.6,1.2-4.5c1.5-0.8,3.5-0.3,4.3,1.2c0.9,1.6,0.3,3.5-1.2,4.3C118.2,53.7,117.6,53.9,117,53.9z M117.1,49.8
			c-0.1,0-0.3,0-0.4,0.1c-0.4,0.2-0.5,0.8-0.3,1.2c0.2,0.4,0.7,0.5,1,0.2c0.5-0.3,0.6-0.8,0.4-1.2C117.6,50,117.4,49.8,117.1,49.8z
			 M33.1,53.9L33.1,53.9c-0.6,0-1.2-0.2-1.7-0.5c-1.5-0.8-2-2.7-1.2-4.3c0.8-1.5,2.9-2.1,4.5-1.2c0.8,0.4,1.3,1.2,1.5,2
			c0.2,0.9,0,1.8-0.4,2.5C35.3,53.3,34.3,53.9,33.1,53.9z M33.1,49.8c-0.3,0-0.6,0.1-0.8,0.4c-0.2,0.4-0.1,0.9,0.3,1.1
			c0.2,0.1,0.4,0.2,0.5,0.2l0,0c0.3,0,0.5-0.1,0.6-0.4c0.2-0.3,0.2-0.6,0.2-0.7c-0.1-0.2-0.2-0.4-0.4-0.5
			C33.4,49.9,33.3,49.8,33.1,49.8z M122.9,50.6c-1.2,0-2.3-0.6-2.9-1.6c-0.8-1.5-0.4-3.4,1.1-4.4c1.8-1,3.6-0.3,4.4,1.2
			c0.4,0.6,0.6,1.5,0.4,2.3c-0.2,0.9-0.7,1.6-1.5,2.1C124.1,50.4,123.5,50.6,122.9,50.6z M122.9,46.4c-0.1,0-0.3,0-0.4,0.1
			c-0.4,0.3-0.5,0.8-0.3,1.2c0.3,0.5,0.9,0.5,1.2,0.3c0.1-0.1,0.3-0.3,0.3-0.6c0-0.2,0-0.4-0.1-0.6
			C123.4,46.6,123.2,46.4,122.9,46.4z M27.2,50.6L27.2,50.6c-0.5,0-1.1-0.1-1.6-0.4c-0.7-0.4-1.3-1.1-1.5-1.9
			c-0.2-0.8-0.1-1.8,0.3-2.5c0.8-1.5,2.8-2.1,4.3-1.2c1.6,1.1,2.1,2.9,1.2,4.5C29.5,49.9,28.4,50.6,27.2,50.6z M27.2,46.4
			c-0.3,0-0.6,0.2-0.7,0.4c-0.1,0.2-0.1,0.5-0.1,0.7c0,0.1,0.1,0.4,0.4,0.5c0.4,0.2,0.9,0.1,1.1-0.3c0.3-0.4,0.1-1-0.4-1.3
			C27.5,46.5,27.4,46.4,27.2,46.4z M75.1,43.1c-1.7,0-3.2-1.4-3.2-3.2c0-1.8,1.4-3.3,3.2-3.3c1.8,0,3.3,1.5,3.3,3.3
			C78.3,41.6,76.8,43.1,75.1,43.1z M75.1,39c-0.5,0-0.8,0.4-0.8,0.9c0,0.4,0.3,0.8,0.8,0.8c0.5,0,0.9-0.4,0.9-0.8
			C76,39.4,75.5,39,75.1,39z M75.1,36.4c-1.7,0-3.2-1.5-3.2-3.3c0-1.7,1.4-3.1,3.2-3.1c1.8,0,3.3,1.4,3.3,3.1
			C78.3,34.9,76.8,36.4,75.1,36.4z M75.1,32.4c-0.4,0-0.8,0.3-0.8,0.8c0,0.5,0.4,0.9,0.8,0.9c0.4,0,0.9-0.5,0.9-0.9
			C76,32.7,75.5,32.4,75.1,32.4z M75.1,29.6c-1.7,0-3.2-1.4-3.2-3.1c0-1.8,1.4-3.3,3.2-3.3c1.8,0,3.3,1.5,3.3,3.3
			C78.3,28.2,76.8,29.6,75.1,29.6z M75.1,25.6c-0.5,0-0.8,0.4-0.8,0.9c0,0.4,0.3,0.8,0.8,0.8c0.5,0,0.9-0.4,0.9-0.8
			C76,25.9,75.5,25.6,75.1,25.6z M75.1,22.9c-1.7,0-3.2-1.5-3.2-3.3c0-1.7,1.4-3.1,3.2-3.1c1.8,0,3.3,1.4,3.3,3.1
			C78.3,21.4,76.8,22.9,75.1,22.9z M75.1,18.9c-0.4,0-0.8,0.3-0.8,0.8c0,0.5,0.4,0.9,0.8,0.9c0.4,0,0.9-0.5,0.9-0.9
			C76,19.3,75.5,18.9,75.1,18.9z"/>
	</g>
</g>
</svg>
