<?xml version="1.0" encoding="utf-8"?>
<!-- Generator: Adobe Illustrator 18.1.1, SVG Export Plug-In . SVG Version: 6.00 Build 0)  -->
<svg version="1.1" id="圖層_1" xmlns="http://www.w3.org/2000/svg" xmlns:xlink="http://www.w3.org/1999/xlink" x="0px" y="0px"
	 viewBox="0 0 117.4 164.2" enable-background="new 0 0 117.4 164.2" xml:space="preserve">
<g>
	<g>
		<g>
			<g>
				<path fill="#0091EA" d="M29.4,63.2c5.4-10.2,8.3-9.6-2.4-20.4C16.2,31.9,29.4,0,29.4,0C-3.1,23.3,14.7,58.7,14.7,58.7
					C7.7,58.7,0,39.1,0,39.1c0,37.5,39.1,48.9,39.1,48.9S24,73.4,29.4,63.2z M24.5,58.7c0,0,2.4-5.5-4.9-9.8
					c-8.6-5-2.4-19.6-2.4-19.6c-1.8,11.1,3.6,15.6,7.3,19.6C28.2,52.9,24.5,58.7,24.5,58.7z M39.1,44c-14-14-4.9-34.3-4.9-34.3
					C14.2,33.4,39.1,44,39.1,44z M102.8,58.7c0,0,17.8-35.4-14.7-58.7c0,0,13.2,31.9,2.4,42.8C79.8,53.6,82.7,53,88.1,63.2
					c5.4,10.2-9.8,24.9-9.8,24.9s39.1-11.4,39.1-48.9C117.4,39.1,109.7,58.7,102.8,58.7z M97.9,48.9c-7.3,4.3-4.9,9.8-4.9,9.8
					s-3.7-5.8,0-9.8c3.7-4,9.1-8.4,7.3-19.6C100.3,29.4,106.5,43.9,97.9,48.9z M83.2,9.8c0,0,9.1,20.3-4.9,34.3
					C78.3,44,103.2,33.4,83.2,9.8z M63.6,107.6c0,0,7.4-4.8,13-18.5c0,0-6.7,5-14.1,5.3C62.5,94.4,64.7,102.8,63.6,107.6z
					 M58.7,94.5c-6.2,1.6-17.1-5.4-17.1-5.4c10.4,10.3,8.7,6.7,13.5,11.2c4.8,4.5,3.7,17.1,3.7,17.1C63.6,104.2,59.5,94.3,58.7,94.5
					z M79.8,80.3l-10.4,0.5L64.8,75l2.8-8.6l8.8-2.8l7.3,5.7c0-0.6,0.1-1.2,0.1-1.8c0-5.4-1.7-10.4-4.6-14.5l-3.3,9.1L67.2,65
					l-7.8-5.6v-8.9l8.5-6.1l0-0.1c-2.9-1.1-6-1.8-9.2-1.8c-3.2,0-6.3,0.6-9.1,1.7l0,0.1l8.3,6.1v9l-7.8,5.7l-8.5-2.6l-3.4-9.4
					c-2.9,4.1-4.5,9-4.5,14.4c0,0.7,0,1.4,0.1,2.1l7.3-5.7l8.9,2.7l2.7,8.3l-4.6,5.8l-10.4-0.5l-0.2,0.6c3.3,5.2,8.4,9.2,14.5,10.9
					l-2.7-9.9l4.3-5.5h10.3l4.3,5.5l-2.7,9.9C71.6,90,76.7,86,80,80.8L79.8,80.3z"/>
			</g>
			<g>
				<path fill="#0091EA" d="M19.3,105.8c6.6,0.2,11.5,0.3,14.7,0.3c2.4,0,5.1-0.1,7.9-0.2c1-0.1,1.9-0.1,2.5-0.1c0.3,0,0.7,0,1.3,0
					c0.1,0.6,0.2,1.7,0.3,3.4l0.3,3.2c0,0.5-0.2,0.8-0.6,0.8c-0.3,0-0.6-0.3-0.9-1c-0.5-1.1-1.1-2-1.9-2.8c-0.8-0.8-1.6-1.3-2.6-1.6
					c-1-0.3-2.6-0.4-5-0.4c-0.2,2.1-0.3,4.7-0.3,7.8c0,3.2,0.1,6.2,0.2,9.2c0.1,3,0.3,4.7,0.4,5.3c0.2,0.6,0.4,1.1,0.8,1.3
					c0.4,0.3,1.3,0.5,2.8,0.6c0.5,0,0.7,0.2,0.7,0.6c0,0.4-0.2,0.6-0.6,0.6l-0.5,0l-4-0.1c-3.1,0-5,0-5.6,0l-2.4,0.1
					c-0.2,0-0.6,0-1.2,0c-0.3-0.1-0.4-0.2-0.4-0.5c0-0.4,0.2-0.6,0.7-0.6c1.1,0,2-0.3,2.6-0.8c0.6-0.5,0.9-1.3,1.1-2.4
					c0.1-1.1,0.2-3.5,0.2-7.1c0-5.8-0.2-10.4-0.5-14c-2.1,0-3.6,0.1-4.5,0.3c-0.9,0.2-1.8,0.7-2.7,1.5c-0.9,0.8-1.6,1.9-2.1,3.2
					c-0.2,0.5-0.5,0.8-0.7,0.8c-0.4,0-0.6-0.2-0.6-0.6c0-0.1,0.1-1,0.2-2.7C19,108.2,19.1,106.9,19.3,105.8z"/>
				<path fill="#0091EA" d="M26.9,133.2L26.9,133.2c-0.2,0-0.6,0-1.2,0c-0.5-0.1-0.7-0.4-0.7-0.8c0-0.3,0.1-0.9,1-0.9
					c1.1,0,1.8-0.2,2.4-0.7c0.5-0.4,0.8-1.2,1-2.2c0.1-1.1,0.2-3.4,0.2-7.1c0-5.6-0.2-10.2-0.5-13.7c-1.9,0-3.3,0.1-4.2,0.3
					c-0.9,0.2-1.7,0.7-2.6,1.4c-0.8,0.8-1.5,1.8-2,3.1c-0.1,0.2-0.4,1-1,1c-0.6,0-0.9-0.3-0.9-0.9c0-0.1,0-0.5,0.2-2.7
					c0.2-1.7,0.3-3.1,0.5-4.2l0-0.3l0.3,0c6.5,0.2,11.5,0.3,14.7,0.3c2.4,0,5.1-0.1,7.9-0.2c1-0.1,1.9-0.1,2.6-0.1
					c0.3,0,0.7,0,1.3,0l0.2,0l0,0.2c0.1,0.6,0.2,1.7,0.3,3.5l0.3,3.2c0,1-0.6,1.1-0.9,1.1c-0.4,0-0.8-0.4-1.2-1.2
					c-0.5-1.1-1.1-2-1.8-2.7c-0.7-0.7-1.6-1.2-2.5-1.5c-0.9-0.2-2.5-0.4-4.6-0.4c-0.2,2-0.3,4.5-0.3,7.5c0,3.1,0.1,6.2,0.2,9.2
					c0.1,2.9,0.3,4.7,0.4,5.3c0.1,0.5,0.4,0.9,0.7,1.2c0.2,0.2,0.9,0.4,2.6,0.5c0.9,0.1,1,0.6,1,0.9c0,0.5-0.4,0.9-0.9,0.9l-0.5,0
					l-3.9-0.1c-3,0-4.9,0-5.6,0L26.9,133.2z M29.3,107.2h0.3l0,0.3c0.3,3.6,0.5,8.3,0.5,14.1c0,3.6-0.1,6-0.2,7.1
					c-0.1,1.2-0.5,2-1.2,2.6c-0.6,0.5-1.6,0.8-2.8,0.8c-0.4,0-0.4,0.2-0.4,0.3c0,0.1,0,0.2,0.2,0.2c0.5,0,0.9,0,1.1,0l2.4-0.1
					c0.7,0,2.6,0,5.6,0l4.5,0.1c0.3,0,0.3-0.1,0.3-0.3c0-0.1,0-0.2-0.5-0.3c-1.6-0.1-2.5-0.3-2.9-0.6c-0.4-0.3-0.8-0.8-1-1.5
					c-0.2-0.6-0.3-2.4-0.4-5.4c-0.1-3-0.2-6.1-0.2-9.2c0-3.1,0.1-5.7,0.3-7.8l0-0.3h0.3c2.3,0,4,0.1,5,0.4c1,0.3,2,0.8,2.8,1.6
					c0.8,0.8,1.4,1.8,1.9,2.9c0.3,0.7,0.6,0.8,0.6,0.8c0.1,0,0.3,0,0.3-0.5l-0.3-3.2c-0.1-1.5-0.2-2.6-0.3-3.2c-0.5,0-0.8,0-1,0
					c-0.7,0-1.5,0-2.5,0.1c-2.9,0.1-5.6,0.2-8,0.2c-3.1,0-8-0.1-14.4-0.3c-0.2,1-0.3,2.3-0.5,3.9c-0.2,2-0.2,2.6-0.2,2.6
					c0,0.2,0.1,0.3,0.3,0.3c0.1,0,0.3-0.2,0.5-0.6c0.6-1.3,1.3-2.4,2.2-3.3c0.9-0.9,1.9-1.4,2.8-1.6
					C25.7,107.2,27.2,107.2,29.3,107.2z"/>
			</g>
			<g>
				<path fill="#0091EA" d="M101.8,107.6l0.6,5.9c0,0.3,0,0.5,0,0.7c0,0.4-0.2,0.6-0.5,0.6c-0.3,0-0.6-0.2-0.8-0.7
					c-1-2.2-2.3-4-3.9-5.3c-1.6-1.4-3.5-2-5.6-2c-2.7,0-4.9,1.2-6.4,3.6c-1.5,2.4-2.3,5.3-2.3,8.6c0,3.7,0.8,6.7,2.5,9
					c1.7,2.3,3.7,3.5,6,3.5c1,0,2-0.2,3-0.7c1-0.5,1.7-1,1.9-1.5c0.3-0.5,0.4-1.3,0.4-2.4c0-2.3-0.1-3.7-0.3-4.3
					c-0.2-0.6-0.5-1-0.9-1.2c-0.4-0.2-1.2-0.4-2.4-0.5c-0.5-0.1-0.7-0.3-0.7-0.6c0-0.4,0.2-0.6,0.7-0.6h2.9l8.8-0.2
					c0.4,0,0.6,0.2,0.6,0.5c0,0.2-0.1,0.3-0.2,0.4c-0.2,0.1-0.7,0.2-1.6,0.4c-0.7,0.2-1.1,0.4-1.3,0.7c-0.2,0.3-0.3,2.4-0.4,6.1
					c0,0.8-0.1,1.3-0.1,1.4c0,0.1-0.8,0.6-2.3,1.4c-1.5,0.8-3,1.4-4.6,1.8s-3.1,0.6-4.7,0.6c-2.6,0-5-0.5-7-1.6
					c-2.1-1.1-3.7-2.6-5-4.6c-1.3-2-1.9-4.4-1.9-7.1c0-3.9,1.3-7.3,3.8-10.1c2.5-2.8,6-4.3,10.4-4.3c1.6,0,3,0.2,4.2,0.6
					c1.3,0.4,2.7,1,4.3,1.7c0.3,0.1,0.6,0.2,0.8,0.2c0.3,0,0.5-0.2,0.6-0.6c0.2-0.5,0.4-0.8,0.7-0.8
					C101.5,106.3,101.7,106.7,101.8,107.6z"/>
				<path fill="#0091EA" d="M90.3,133.2c-2.7,0-5.1-0.6-7.2-1.7c-2.1-1.1-3.8-2.7-5.1-4.7c-1.3-2-1.9-4.5-1.9-7.3
					c0-4,1.3-7.4,3.9-10.3c2.6-2.9,6.1-4.4,10.6-4.4c1.6,0,3,0.2,4.3,0.6c1.3,0.4,2.7,1,4.3,1.7c0.3,0.1,0.5,0.2,0.7,0.2
					c0.1,0,0.3-0.2,0.3-0.4c0.2-0.6,0.6-1,1-1c0.8,0,0.9,1.2,0.9,1.6l0.6,5.9c0,0.3,0,0.5,0,0.7c0,0.6-0.3,0.9-0.8,0.9
					c-0.4,0-0.8-0.3-1.1-0.9c-1-2.1-2.3-3.9-3.8-5.2c-1.6-1.3-3.4-2-5.4-2c-2.6,0-4.6,1.1-6.1,3.5c-1.5,2.4-2.3,5.2-2.3,8.4
					c0,3.6,0.8,6.6,2.5,8.9c1.6,2.3,3.6,3.4,5.8,3.4c0.9,0,1.9-0.2,2.9-0.7c0.9-0.4,1.6-0.9,1.8-1.4c0.3-0.5,0.4-1.3,0.4-2.2
					c0-2.8-0.1-3.8-0.2-4.2c-0.2-0.5-0.4-0.8-0.7-1c-0.2-0.1-0.8-0.3-2.3-0.5c-0.8-0.1-1-0.6-1-0.9c0-0.6,0.4-0.9,1-0.9h2.9l8.8-0.2
					c0.6,0,0.9,0.3,0.9,0.8c0,0.3-0.1,0.6-0.4,0.7c-0.1,0-0.3,0.1-1.7,0.4c-0.6,0.1-1,0.3-1.1,0.6c-0.1,0.1-0.3,1-0.4,6
					c0,1.3-0.1,1.4-0.1,1.5c0,0.2-0.1,0.3-2.4,1.6c-1.5,0.8-3.1,1.5-4.6,1.9C93.5,133,91.9,133.2,90.3,133.2z M90.6,105.4
					c-4.3,0-7.7,1.4-10.1,4.2c-2.5,2.8-3.7,6.1-3.7,9.9c0,2.7,0.6,5,1.8,7c1.2,1.9,2.9,3.5,4.9,4.5c2,1.1,4.3,1.6,6.9,1.6
					c1.5,0,3.1-0.2,4.6-0.6c1.5-0.4,3.1-1,4.5-1.8c1.5-0.9,2-1.1,2.1-1.3c0-0.1,0-0.4,0.1-1.3c0.1-5,0.3-6,0.5-6.3
					c0.2-0.4,0.7-0.7,1.5-0.9c1.2-0.3,1.5-0.4,1.5-0.4c0,0,0.1,0,0.1-0.1c0-0.1,0-0.2-0.3-0.2l-8.8,0.2h-2.9c-0.3,0-0.4,0.1-0.4,0.3
					c0,0.1,0,0.2,0.4,0.3c1.3,0.2,2.1,0.3,2.5,0.6c0.5,0.3,0.8,0.7,1,1.3c0.2,0.6,0.3,2,0.3,4.3c0,1.1-0.2,1.9-0.5,2.5
					c-0.3,0.6-1,1.2-2.1,1.7c-1,0.5-2.1,0.7-3.1,0.7c-2.4,0-4.5-1.2-6.2-3.6c-1.7-2.4-2.6-5.5-2.6-9.2c0-3.3,0.8-6.3,2.3-8.7
					c1.6-2.5,3.8-3.8,6.6-3.8c2.2,0,4.1,0.7,5.8,2.1c1.6,1.4,3,3.2,4,5.4c0.2,0.4,0.3,0.5,0.5,0.5c0.1,0,0.2,0,0.2-0.3
					c0-0.2,0-0.4,0-0.6l-0.6-5.9c-0.1-0.8-0.2-1-0.3-1c-0.2,0-0.4,0.4-0.4,0.6c-0.2,0.7-0.6,0.8-0.9,0.8c-0.3,0-0.6-0.1-0.9-0.3
					c-1.6-0.7-3-1.3-4.2-1.7C93.5,105.6,92.1,105.4,90.6,105.4z"/>
			</g>
			<g>
				<path fill="#0091EA" d="M61.3,129.3c-1.7,1.2-3.3,2.3-5,3.5c0-0.1,0-0.1,0.1-0.2c0.6-1.8,1.2-3.7,1.8-5.5c0-0.1,0-0.1,0-0.1
					c-1.6-1.2-3.1-2.4-4.7-3.5c0,0,0,0-0.1-0.1c0,0,0.1,0,0.1,0c2,0,3.9,0,5.9,0c0.1,0,0.1,0,0.1-0.1c0.4-1.2,0.8-2.4,1.2-3.6
					c0.2-0.7,0.5-1.4,0.7-2.1c0,0,0,0,0-0.1c0,0.1,0.1,0.2,0.1,0.3c0.6,1.9,1.2,3.7,1.8,5.6c0,0.1,0,0.1,0.1,0.1c2,0,3.9,0,5.9,0
					c0,0,0.1,0,0.1,0c0,0-0.1,0.1-0.1,0.1c-1.6,1.2-3.1,2.3-4.7,3.5c-0.1,0.1-0.1,0.1-0.1,0.2c0.6,1.9,1.2,3.8,1.8,5.7
					c0,0,0,0,0,0.1C64.6,131.7,62.9,130.5,61.3,129.3z"/>
			</g>
		</g>
		<g>
			<polygon fill="#0091EA" points="52.9,149.6 57.1,143.1 51.2,143.1 48.2,147.5 47.2,147.5 47.8,149.6 			"/>
			<polygon fill="#0091EA" points="66.5,145.9 69.5,149.6 74.8,149.6 75.5,147.5 74.2,147.5 70.9,143.1 57.8,143.1 55.9,145.9 			
				"/>
			<polygon fill="#0091EA" points="23.5,152.1 22.5,149.3 17.5,149.3 18.4,152.1 			"/>
			<polygon fill="#0091EA" points="23.5,147.9 24.3,146.1 23.5,146.1 22.5,143.1 17.5,143.1 19,147.9 			"/>
			<polygon fill="#0091EA" points="19,154.1 23.5,154.1 23.5,154 19,154 			"/>
			<rect x="49.6" y="150.1" fill="#0091EA" width="23.4" height="2.1"/>
			<polygon fill="#0091EA" points="57.3,159.7 56.4,159.7 55.4,157.7 49.8,157.7 51.7,161 56.9,161 			"/>
			<polygon fill="#0091EA" points="64.2,157 74,157 74,154.4 64.2,154.4 64.2,154 58.5,154 58.5,154.4 48.6,154.4 48.6,157 
				58.5,157 58.5,161.5 47.1,161.5 47.1,164.1 75.6,164.1 75.6,161.5 64.2,161.5 			"/>
			<polygon fill="#0091EA" points="65.4,159.7 65.8,161 71,161 72.8,157.7 67.3,157.7 66.3,159.7 			"/>
			<polygon fill="#0091EA" points="99.8,159.6 97.7,154.2 97.7,154 93.6,154 93.6,154.2 91.7,159.2 89.7,154.2 89.7,154 85.6,154 
				85.6,154.2 83.5,159.6 83.5,154 77.8,154 77.8,164.2 83.5,164.2 83.5,161.4 86.9,161.4 87.7,159.3 88.5,161.4 94.9,161.4 
				95.7,159.3 96.5,161.4 99.8,161.4 99.8,161.8 98.2,161.8 99.3,164.2 105.5,164.2 105.5,154 99.8,154 			"/>
			<path fill="#0091EA" d="M77.8,143.3v8.8h5.7v-3.3l1.3,3.3h5.7l1.2-3l1.2,3h5.6l1.3-3.3v3.3h5.7v-8.8H77.8z M99.8,147h-3.4l-0.8,2
				l-0.8-2h-6.4l-0.8,2l-0.8-2h-3.4v-1.1h16.3V147z"/>
			<polygon fill="#0091EA" points="31.3,143.1 25.9,143.1 24.3,146.9 39.7,146.9 39.7,152.1 44.9,152.1 44.9,144.5 30.6,144.5 			
				"/>
			<polygon fill="#0091EA" points="18.2,161.4 17.1,161.4 17.9,164 22.8,164 24.3,155.3 19.3,155.3 			"/>
			<polygon fill="#0091EA" points="34.3,155.5 39.2,155.5 39.2,154 24.8,154 24.8,155.5 29.6,155.5 29.6,159.6 28.6,159.6 
				28.6,156.5 25,156.5 25,162 34.7,162 35.4,159.6 34.3,159.6 			"/>
			<polygon fill="#0091EA" points="29.1,151.1 29.6,151.1 29.6,152.1 34.3,152.1 34.3,151.1 38.4,151.1 38.4,148.7 30,148.7 
				30.6,147.3 26,147.3 24.8,150.7 24.2,150.7 24.6,152.1 28.8,152.1 			"/>
			<polygon fill="#0091EA" points="39,162 39,156.5 35.4,156.5 35.4,159.6 35.4,162 			"/>
			<polygon fill="#0091EA" points="39.7,162.2 38.3,162.2 39.2,164 44.9,164 44.9,154 39.7,154 			"/>
		</g>
	</g>
</g>
</svg>
